<svg xmlns="http://www.w3.org/2000/svg" viewBox="0 0 96.58 80.64"><defs><style>.cls-1{fill:#901d77;stroke:#901d77;stroke-width:0.4px;}.cls-1,.cls-3,.cls-5,.cls-6{stroke-miterlimit:10;}.cls-2,.cls-3{fill:#fff;}.cls-3,.cls-5,.cls-6{stroke:#1d1d1b;}.cls-3{stroke-width:0.25px;}.cls-4{fill:#1d1d1b;}.cls-5,.cls-6{fill:none;}.cls-5{stroke-width:1.03px;}.cls-6{stroke-width:2.14px;}</style></defs><title>Icon Saiga</title><path class="cls-1" d="M19,54.05A18.92,18.92,0,0,0,19,51.11c-.19-1.34-1.15-4.07-1.19-5.42A22.57,22.57,0,0,1,19,39.55c.49-1.26,2.08-3.54,2.39-4.86a7.08,7.08,0,0,0,0-2.79c-.17-.5-.86-1.37-1-1.88a18.87,18.87,0,0,1-.1-3.38,13.29,13.29,0,0,1,1.59.5,12.45,12.45,0,0,1,1.29,1,46.91,46.91,0,0,1-.06-6.8c.2-1.27,1.23-4.12,1.42-5.5A35.08,35.08,0,0,0,25,12.28c0-1-.42-3.15-.42-4.2,0-.49.13-2.39.13-2.39S25.55,8.15,25.82,9a46,46,0,0,1,1.29,4.59,19.66,19.66,0,0,1,0,4.27c-.17,1.69-.95,4.45-.87,6a12.73,12.73,0,0,0,1,4.18c.17.31.79,1.19.79,1.19s1.48-2.05,1.89-2.79a23.51,23.51,0,0,0,2.18-5.06,31.68,31.68,0,0,0,0-4.57V6.19s1,2.35,1.24,3c.36,1.22.08,3.09.25,4.35S34.81,17.15,35,18.4a23.76,23.76,0,0,1,0,4.77c-.11.88-.64,2.6-.79,3.47-.11.62-.56,1.91-.3,2.48a2.22,2.22,0,0,0,1.09.75,1.36,1.36,0,0,0,.8,0c.66-.4,1.14-2.11,1.78-2.53,2.65-1.73,4.37-1.09,4.37-1.09.27,2.08.22,3.65-3.15,5.13-.46.2,1.17.52,1.56.43,1.19-.27,3.12-1.93,4.07-2.69,1.18-.92,3.32-3,4.37-4.06.86-.87,2.38-2.77,3.28-3.58a23.88,23.88,0,0,1,3.78-2.78,14.19,14.19,0,0,1,3.57-1.09c1.45-.19,4.39.24,5.86.19a65.3,65.3,0,0,0,6.55-.59c2.14-.35,6.29-1.7,8.44-2a67.59,67.59,0,0,1,9.44-.29c2.51.13,7.59,1,9.82,2.18,1.34.68,3.42,2.91,4.47,4,1.25,1.26,3.33,4.2,4.67,5.36.38.33,1.34.74,1.69,1.1a11.7,11.7,0,0,1,2,4.07c.57,2.49-.74,7.78,0,10.23.07.25.74.67.59.89s-1.31-.18-1.69-.4A9.16,9.16,0,0,1,109,39.85a10,10,0,0,1-.5-1.39s-3.47,4-4.07,5.66c-.45,1.24-.9,4.05-.4,5.26.34.81,2,1.74,2.69,2.29a37.83,37.83,0,0,0,3.26,2.39c.75.44,2.29,1.07,3,1.58a3.59,3.59,0,0,1,1,1,8.25,8.25,0,0,1,0,2.38c0,.55,0,1.64,0,2.19-.11,1.75-.8,5.2-.89,7s.26,5.14.2,6.85a15.19,15.19,0,0,1-.4,4.17,6.33,6.33,0,0,1-1.09,1.29,2.1,2.1,0,0,0-.4.5,7.34,7.34,0,0,0,.1,1.39,2,2,0,0,1-.1.89,7.64,7.64,0,0,1-2.48,1.29l-2.58.6-.2-.89-1.39.2-.1-1a16.44,16.44,0,0,1,.9-2.38c.47-.77,1.84-2,2.28-2.78a12.31,12.31,0,0,0,.79-2.38,70.6,70.6,0,0,0,1-7.55c0-.6.31-4.56-.2-6a10.63,10.63,0,0,0-2.19-2.78,47.52,47.52,0,0,0-6.55-4.46c-.89-.54-2.76-1.46-3.58-2.09-.19-.15-.69-.7-.69-.7s.35,1.65.49,2.19a5.23,5.23,0,0,0,.5,1.49c.18.21.84.26,1,.49a3.26,3.26,0,0,1,.1,1.59,4,4,0,0,1-.3,1.19,25.18,25.18,0,0,1-2.38,2.59A64.62,64.62,0,0,0,92,67.65c-.73,1.23-2.68,5.07-2.68,5.07A15.82,15.82,0,0,0,88,75.3c-.09.36.07,1.12,0,1.49a2.16,2.16,0,0,1-.3.79A2.08,2.08,0,0,1,87,78a10.35,10.35,0,0,1-1.5.2l-.19,1a4.28,4.28,0,0,1-.2,1.1,3.21,3.21,0,0,1-.6.49l-2,.7-2.39.89-.59-.4H78.28a19.89,19.89,0,0,1,.79-2.38,41.25,41.25,0,0,1,3.08-4.07s4.76-6.43,6.26-8.64A31.88,31.88,0,0,0,92,60.11a17.56,17.56,0,0,0,.1-3.77,11.43,11.43,0,0,0-.3-2.19,20,20,0,0,0-1.39-2.78,18.25,18.25,0,0,0-1.78-2.78,14.21,14.21,0,0,0-1.5-1.19L80.66,48s-3.49.55-4.67.6c-1.53.06-4.63-.21-6.15,0a40.81,40.81,0,0,0-4,1.09,35.74,35.74,0,0,0,.06,4.77c.2,1,1.11,2.95,1.33,4s.43,3.58.6,4.77c.22,1.49.75,4.48,1.09,6,.23,1,.83,2.91,1.09,3.87a12.78,12.78,0,0,1,.4,1.79,18.86,18.86,0,0,1-.1,2.09l-1.09.69a6.76,6.76,0,0,0-1.19.9,3.24,3.24,0,0,0-.4,1.59,2.28,2.28,0,0,0,.2.49l-.69,1.09-1.24.1-3.13.1-.1-.59h-.9a19.17,19.17,0,0,1,.8-2.39,10.51,10.51,0,0,1,1.19-1.49,13.19,13.19,0,0,0,1.59-1.58,10.21,10.21,0,0,0,.55-3.58,33.07,33.07,0,0,0-.85-5.66,27.94,27.94,0,0,0-1.39-4.17c-.33-.71-1.24-2-1.49-2.78a30.16,30.16,0,0,1-.6-3.87s-3.47,5.13-4.46,6.95A69.33,69.33,0,0,0,54,70c-.45,1.22-1.49,5-1.49,5a20.23,20.23,0,0,1-.4,3.08,4.49,4.49,0,0,1-.79,1.19,8.68,8.68,0,0,0-1.09,1,2.57,2.57,0,0,0-.3,1.09,10.9,10.9,0,0,0,.4,1.69l-.1.49a37.34,37.34,0,0,1-4.57,1.59,11.92,11.92,0,0,1-1.49,0l-.3-1.19-.69.2.59-2.49s2.65-2.89,3.38-4A39.42,39.42,0,0,0,50,71.82a43.07,43.07,0,0,0,1.49-5.76c.2-1.1.49-4.46.49-4.46a22.16,22.16,0,0,1,.4-2.19c.47-1.48,2.58-5.66,2.58-5.66A19.32,19.32,0,0,0,56,51.07a7.91,7.91,0,0,0,0-1l-2.69-.8L50,48.09,47.29,46.9a11.4,11.4,0,0,0-1.88,0c-.81.17-2.28,1-3.08,1.19-.46.12-1.88.3-1.88.3a11.69,11.69,0,0,1-3.08.1A9.23,9.23,0,0,1,35.48,47l-1.59-.8a.83.83,0,0,0-.89,0c-.5.3-1.67,1.34-2.29,1.69a9.11,9.11,0,0,0-1.88,1A13,13,0,0,0,27.94,51c-.26.47-1.2,1.78-1.2,1.78a4.84,4.84,0,0,1-.69.69c-.3.17-1,.26-1.3.4s-1,.6-1,.6l-1.78.1a9.14,9.14,0,0,1-1.79.1A6.84,6.84,0,0,1,19,54.05Z" transform="translate(-17.65 -4.73)"/><path class="cls-2" d="M70.32,40.86s-1.28,3-1.62,3.64-.94,1.5-1.27,2c-.17.27-.69,1-.69,1s1.55-.29,2.06-.42A13.94,13.94,0,0,1,71,46.76a21.22,21.22,0,0,1,3.37.36,36.66,36.66,0,0,0,4.52-.63c1-.13,2.91-.44,3.89-.52.79-.07,3.16-.11,3.16-.11h1l-.45-.67a3.69,3.69,0,0,0-1-1.51,4.73,4.73,0,0,0-2.1-.18c-.52.07-1.53.27-2,.39a14.38,14.38,0,0,1-3.26.29c-1.33-.1-4-.73-5.27-1a3.92,3.92,0,0,1-1.54-.8A9,9,0,0,1,70.32,40.86Z" transform="translate(-17.65 -4.73)"/><path class="cls-3" d="M29.69,38c.16.16.68,0,.9,0a4.93,4.93,0,0,0,.83-.41c.19-.1.64-.23.74-.42a1.86,1.86,0,0,0,0-1.48,1.9,1.9,0,0,0-1.24-.42,2,2,0,0,0-1.23.58c-.15.23,0,.81,0,1.08S29.5,37.77,29.69,38Z" transform="translate(-17.65 -4.73)"/><path class="cls-2" d="M36.18,41c-.4.65-2,3.85-2,3.85a5.07,5.07,0,0,1,2.6.54,3.52,3.52,0,0,0,2.89.93,11.78,11.78,0,0,0,3.15-.72,28.53,28.53,0,0,1,2.92-.21A17.1,17.1,0,0,0,42.25,43c-.77-.22-2.43.09-3.19-.15A17.51,17.51,0,0,1,36.18,41Z" transform="translate(-17.65 -4.73)"/><path class="cls-4" d="M129.08,31.84" transform="translate(-17.65 -4.73)"/><path class="cls-5" d="M122.14,88" transform="translate(-17.65 -4.73)"/><path class="cls-6" d="M52.51-11.28" transform="translate(-17.65 -4.73)"/></svg>