<svg id="Слой_1" data-name="Слой 1" xmlns="http://www.w3.org/2000/svg" viewBox="0 0 186.99 186.99"><defs><style>.cls-1,.cls-4{fill:#1d1d1b;}.cls-2{fill:#d5d2d2;}.cls-3,.cls-5{fill:#fff;}.cls-4,.cls-5,.cls-6,.cls-7{stroke:#1d1d1b;stroke-miterlimit:10;}.cls-4{stroke-width:0.42px;}.cls-5{stroke-width:0.26px;}.cls-6,.cls-7{fill:none;}.cls-6{stroke-width:1.76px;}.cls-7{stroke-width:1.78px;}</style></defs><title>Logo Tarutino round</title><path class="cls-1" d="M85.74,161.51a9.42,9.42,0,0,0,.27,1,4.77,4.77,0,0,0,.75,1.22,2.92,2.92,0,0,0,1,.7,2.73,2.73,0,0,0,1.53-.11,4,4,0,0,0,1.22-1.59,9.26,9.26,0,0,0,.2-1.52s0-.77-.07-1a6.69,6.69,0,0,1,.27-1.35c.07-.23.34-.89.34-.89a9.46,9.46,0,0,0-.93,1.24,8.13,8.13,0,0,0-.39,1.72c0,.25-.2.93-.2.93s.29-2.49.44-3.3.68-2.8.86-3.75a35.47,35.47,0,0,0,.62-5.82c0-.84-.53-2.49-.49-3.33a11.5,11.5,0,0,1,.58-2,9.23,9.23,0,0,0,.3-1.46c0-.32-.09-1-.08-1.27s-.08-.83-.09-1.17c0-1.17-.1-2.5-.1-2.5a18.12,18.12,0,0,0-.28,3.5c0,.49-.24,1.8-.23,2s-.27,1.05-.36,1.4l-.12.52a12.05,12.05,0,0,0-.85-2,4.65,4.65,0,0,0-.82-.71c-.35-.26-1.15-.65-1.49-.92s-.79-.91-1.11-1.15a11.53,11.53,0,0,0-1.53-.76l1.47,1.22-1.34-.11c-.55,0-1.66-.15-2.21-.15a11.76,11.76,0,0,0-1.35.22s2.75.14,3.64.28l.74.16a3.71,3.71,0,0,1,.92.19,8,8,0,0,1,1.49,1.58c.21.26.59.82.79,1.09s.47.64.62.86a4.73,4.73,0,0,1,.72,1.48,14.81,14.81,0,0,1-.71,3.07c-.14.75-.37,2.28-.45,3,0,.45-.13,1.8-.13,1.8l-.14,2.41s.09,2.07.19,2.75a12,12,0,0,1,.14,1.89,11.64,11.64,0,0,1-.32,1.39,2.73,2.73,0,0,1-.29-.54,13.84,13.84,0,0,1,.1-2.87c.08-1.62-.19-6.47-.19-6.47l.08-4.62.21-3.69-.8,6.09s-.61-1-.76-1.43a25,25,0,0,1-1-3.81c-.13-.7-.3-2.84-.3-2.84l.05-.72a23.59,23.59,0,0,0-.33,2.58,31.45,31.45,0,0,0,.72,4.5c.18.85.85,3.36.85,3.36l.44,2.48s.26,2.85.26,3.81c0,.44-.09,1.75-.09,1.75s-1.29-2.23-1.64-3c-.16-.35-.39-1.08-.52-1.45s-.28-.76-.37-1-.31-1-.38-1.4c-.11-.64-.18-2.36-.81-2.53-.28-.07-.69.55-.81.8-.28.6-.85,2.49-.85,2.49a12.9,12.9,0,0,0,1.19-2.26c0-.09.33-.08.41,0,.26.18.34.89.39,1.2a26.71,26.71,0,0,0,1.25,4.44c.35.87,1.23,2.53,1.52,3.42.16.48.45,2,.45,2a4.07,4.07,0,0,1-1.17-1.23c-.21-.41-.41-1.11-.61-1.55s-.84-1.68-.84-1.68a16.89,16.89,0,0,0,.28,1.77,14.9,14.9,0,0,0,.49,1.47c.17.37.83,1.35.83,1.35Z" transform="translate(-24.05 -31.59)"/><path class="cls-1" d="M88.38,164.53a3.42,3.42,0,0,1-.62-.06,3.11,3.11,0,0,1-1.06-.72,5.22,5.22,0,0,1-.77-1.25,7.71,7.71,0,0,1-.27-1l-.07-.29.64.68a6.6,6.6,0,0,1-.35-.61,9.06,9.06,0,0,1-.4-1.16,3.4,3.4,0,0,0-.1-.33A17.39,17.39,0,0,1,85.1,158l0-.42.2.38s.64,1.26.83,1.68c.09.21.18.46.27.71s.23.62.34.84a3.54,3.54,0,0,0,1,1.09c-.09-.42-.28-1.39-.4-1.75a20.73,20.73,0,0,0-.88-2c-.25-.54-.49-1.05-.64-1.42a26,26,0,0,1-1.26-4.45v-.12c0-.31-.14-.89-.34-1a.4.4,0,0,0-.16,0,.25.25,0,0,0-.14,0,12.63,12.63,0,0,1-1.2,2.27l-.27.38.13-.45c0-.08.57-1.91.85-2.5.12-.24.57-.93.91-.84.55.15.7,1.28.8,2.1,0,.19.05.36.07.48.07.37.27,1,.38,1.39,0,.14.13.36.2.57s.13.34.17.46.06.18.1.29c.12.37.29.88.41,1.15.28.62,1.17,2.18,1.51,2.77,0-.41.08-1.17.07-1.48,0-.94-.26-3.78-.26-3.81l-.44-2.46s-.67-2.52-.85-3.37l-.05-.23a28.84,28.84,0,0,1-.67-4.28,23.75,23.75,0,0,1,.33-2.59h.16l0,.72s.17,2.14.3,2.83a26.1,26.1,0,0,0,1,3.79,13.18,13.18,0,0,0,.64,1.21l.77-5.85.16,0-.21,3.68-.08,4.62s.27,4.87.19,6.48c0,.2,0,.48-.06.76a8.25,8.25,0,0,0,0,2.08,2.63,2.63,0,0,0,.19.37,8.3,8.3,0,0,0,.27-1.21,12.55,12.55,0,0,0-.14-1.87c-.1-.68-.19-2.67-.19-2.75l.14-2.42s.08-1.36.13-1.8c.08-.78.31-2.33.45-3.06,0-.27.17-.64.28-1a6.27,6.27,0,0,0,.43-2,4.64,4.64,0,0,0-.71-1.45l-.46-.64-.16-.21-.22-.32c-.19-.26-.42-.59-.57-.77l-.2-.25A6.32,6.32,0,0,0,86.83,141a3.78,3.78,0,0,0-.9-.18l-.75-.16c-.87-.13-3.6-.28-3.63-.28l-.61,0,.6-.12a11.58,11.58,0,0,1,1.37-.22c.44,0,1.18.06,1.77.12l.45,0,1.08.09-1.68-1.4.49.2a11.34,11.34,0,0,1,1.55.77,5,5,0,0,1,.59.61,7.42,7.42,0,0,0,.52.55,6.87,6.87,0,0,0,.8.49c.27.15.52.3.69.42a4.44,4.44,0,0,1,.83.73,9.32,9.32,0,0,1,.78,1.74l0-.25.12-.42a6.48,6.48,0,0,0,.24-1c0-.07,0-.29.08-.68s.14-1,.15-1.28a18.28,18.28,0,0,1,.28-3.52l.12-.5,0,.52s.09,1.34.1,2.5c0,.16,0,.38,0,.58a5,5,0,0,1,0,.59,4.18,4.18,0,0,0,0,.56,3.83,3.83,0,0,1,0,.72,9.14,9.14,0,0,1-.3,1.47l-.19.55a6.32,6.32,0,0,0-.39,1.41,9.05,9.05,0,0,0,.25,1.79,10.3,10.3,0,0,1,.24,1.54,37,37,0,0,1-.62,5.84c-.08.44-.24,1.06-.4,1.71s-.37,1.52-.46,2c-.05.24-.1.63-.16,1.06a4.17,4.17,0,0,1,.15-.46,9.75,9.75,0,0,1,1-1.25l.33-.38-.19.46s-.28.66-.35.89a6.82,6.82,0,0,0-.26,1.31c0,.21.07,1,.07,1a9.89,9.89,0,0,1-.2,1.55,4.07,4.07,0,0,1-1.26,1.64A2.19,2.19,0,0,1,88.38,164.53Zm-2.49-2.74a3.87,3.87,0,0,0,.19.64,5.13,5.13,0,0,0,.73,1.2,3,3,0,0,0,1,.68,3.25,3.25,0,0,0,.59.05,1.9,1.9,0,0,0,.88-.15,3.92,3.92,0,0,0,1.18-1.55,9.85,9.85,0,0,0,.2-1.5s0-.75-.07-1a7,7,0,0,1,.27-1.37c0-.1.09-.26.16-.43a5.69,5.69,0,0,0-.6.83,7.77,7.77,0,0,0-.38,1.69c0,.26-.19.92-.2.94l-.16,0s.29-2.5.44-3.31c.09-.51.28-1.29.47-2s.31-1.27.39-1.7a36.51,36.51,0,0,0,.62-5.8,10.09,10.09,0,0,0-.24-1.52,9.31,9.31,0,0,1-.25-1.82,6.35,6.35,0,0,1,.4-1.46c.07-.21.14-.4.18-.55a8.7,8.7,0,0,0,.3-1.43,3.53,3.53,0,0,0,0-.69,4.45,4.45,0,0,1,0-.58c0-.15,0-.35,0-.57s0-.43,0-.6c0-.62,0-1.28-.06-1.77a24.05,24.05,0,0,0-.16,2.77c0,.29-.09.85-.15,1.3,0,.29-.08.59-.08.65a6.35,6.35,0,0,1-.24,1l-.12.42-.12.52-.06.28-.09-.27a13.19,13.19,0,0,0-.85-2,4.49,4.49,0,0,0-.79-.69c-.16-.12-.42-.26-.68-.41a8.14,8.14,0,0,1-.82-.51,4.93,4.93,0,0,1-.54-.56,5.53,5.53,0,0,0-.56-.59,7.1,7.1,0,0,0-1-.52l1.23,1-.25,0-1.34-.11-.45,0c-.55,0-1.32-.12-1.74-.12a4.87,4.87,0,0,0-.71.09c.87.06,2.39.16,3,.26l.74.15a3.94,3.94,0,0,1,1,.2,6,6,0,0,1,1.3,1.35l.21.25c.15.18.37.5.57.78l.22.31.16.22.46.64a5.08,5.08,0,0,1,.74,1.52,6.76,6.76,0,0,1-.43,2.09,10.17,10.17,0,0,0-.28,1c-.14.73-.37,2.27-.45,3-.05.44-.13,1.78-.13,1.8l-.14,2.41s.09,2.06.19,2.73a11.67,11.67,0,0,1,.14,1.91,12.65,12.65,0,0,1-.32,1.41l0,.16-.1-.14a3.56,3.56,0,0,1-.3-.57,8.12,8.12,0,0,1,0-2.13c0-.29,0-.56.06-.76.08-1.6-.19-6.42-.19-6.47l.08-4.63.09-1.55-.56,4.21-.11-.21s-.61-1.06-.76-1.44a25.3,25.3,0,0,1-1-3.82c-.1-.52-.21-1.79-.27-2.45a12.71,12.71,0,0,0-.15,1.45,28.55,28.55,0,0,0,.67,4.24l0,.24c.17.84.84,3.34.85,3.36l.44,2.48s.26,2.88.26,3.83c0,.44-.08,1.7-.09,1.75l0,.26-.13-.22c-.05-.09-1.29-2.24-1.64-3-.13-.27-.3-.79-.43-1.16,0-.11-.07-.21-.1-.29s-.1-.28-.16-.46-.16-.43-.2-.57A13.3,13.3,0,0,1,85,153a4.41,4.41,0,0,1-.07-.49c-.09-.69-.24-1.85-.69-2h0c-.21,0-.57.5-.69.76a19.76,19.76,0,0,0-.67,1.89,15.82,15.82,0,0,0,.87-1.73c0-.1.19-.12.28-.12a.54.54,0,0,1,.25.06c.24.16.33.65.4,1.14l0,.11a25.42,25.42,0,0,0,1.25,4.42c.14.37.38.88.64,1.41a20.81,20.81,0,0,1,.88,2c.16.47.44,1.91.45,2l0,.19-.16-.11a4,4,0,0,1-1.19-1.27c-.12-.23-.23-.55-.35-.86s-.18-.49-.26-.69-.43-.88-.63-1.28a10.11,10.11,0,0,0,.22,1.31c0,.09.06.2.1.33a11.65,11.65,0,0,0,.38,1.14c.17.36.82,1.32.83,1.33l-.13.1Z" transform="translate(-24.05 -31.59)"/><path class="cls-1" d="M88.9,145.31l-.05-.33c0-.84.1-.75,0-1.18,0-.08,0-.08,0-.35s0-.47.08-.66a3.43,3.43,0,0,0,.06-.34,4.11,4.11,0,0,0-.14-1.38c0-.14,0-.28-.08-.42-.06-.34-.1-.68-.14-1a8.12,8.12,0,0,0-.61-2.56,5.51,5.51,0,0,0-1.35-1.91,4.53,4.53,0,0,0-1.54-.72l-.45-.14a9,9,0,0,0-4.88-.26,21.71,21.71,0,0,0-4.66,1.73,9,9,0,0,1-5.13.48,19.07,19.07,0,0,1-2.64-.37,4.36,4.36,0,0,1-2-1c-.12-.14-.34-.09-.52-.13a5.75,5.75,0,0,0-1.85,0,4.47,4.47,0,0,0-1.76.51l-.27.09a3.33,3.33,0,0,0-2,1.38c-.39.68-.1,1.38.24,2.21s.61,1.4,1.48,1.62a3.72,3.72,0,0,0,2.26-.18l.11.12a3.92,3.92,0,0,1-2.41.22,2.26,2.26,0,0,1-1.61-1.62,2.8,2.8,0,0,1-.21-2.45,3.6,3.6,0,0,1,2-1.52h.31a3.57,3.57,0,0,1,1.56-.52,7.77,7.77,0,0,1,2.15,0,2.12,2.12,0,0,1,.51.13,9.64,9.64,0,0,0,2,1,17.92,17.92,0,0,0,2.6.38,8.89,8.89,0,0,0,5-.46,22.74,22.74,0,0,1,4.7-1.75,9.09,9.09,0,0,1,5,.27l.44.14a4.69,4.69,0,0,1,1.6.75,5.8,5.8,0,0,1,1.39,2,8.31,8.31,0,0,1,.62,2.6c0,.32.08.66.14,1,0,.13,0,.27.08.41a4.38,4.38,0,0,1,.14,1.43,3.17,3.17,0,0,1-.06.35,2,2,0,0,0-.08.62l0,.2C89.16,143.9,89.13,145.15,88.9,145.31Z" transform="translate(-24.05 -31.59)"/><path class="cls-1" d="M85.6,139.72c-.3-.08-.74-.55-1-.66a5.52,5.52,0,0,0-1.33-.4,9.63,9.63,0,0,0-2.34-.1l-.19,0a12.8,12.8,0,0,1-4.86-.09,14.46,14.46,0,0,1-3.41-1.87l-.76-.5c-.58-.38-1.15-.8-1.7-1.21a24.5,24.5,0,0,0-2.43-1.63,6.28,6.28,0,0,0-2.38-.88,7.65,7.65,0,0,0-1.64.12c-.29,0-.59.08-.88.1l-.39,0c-.7,0-1.18.8-2,.39s-.83,1.56-.93,2.41-.21,1.17.28,1.65a2.54,2.54,0,0,0,2.21.58l0,.16a2.7,2.7,0,0,1-2.35-.63,1.94,1.94,0,0,1-.46-1.92c.09-.73.44-2.39,1.15-2.39s1.31-.37,2-.41l.39,0c.29,0,.58-.06.88-.1a7.92,7.92,0,0,1,1.68-.12,6.43,6.43,0,0,1,2.44.9,21.86,21.86,0,0,1,2.45,1.65c.54.4,1.11.82,1.69,1.19l.76.51a13.93,13.93,0,0,0,3.37,1.84,12.43,12.43,0,0,0,4.79.09l.19,0a9.78,9.78,0,0,1,2.37.1,5.53,5.53,0,0,1,1.38.41c.27.11,1,.59,1.32.67Z" transform="translate(-24.05 -31.59)"/><path class="cls-1" d="M73.38,143.66a9.44,9.44,0,0,1-2.53-.48l-.72-.2-.8-.22a10.71,10.71,0,0,0-1.74-.41c-.33,0-1.68,0-2,.39a.21.21,0,0,0,0,.24l-.15.07a.36.36,0,0,1,0-.4c.33-.46,1.77-.5,2.1-.46a12.25,12.25,0,0,1,1.77.41c.26.08.52.16.79.22l.72.2c1.25.37,2.67.77,3.89.18.44-.21.87-.44,1.29-.67a14,14,0,0,1,2.48-1.16c.26-.09.46-.3.72-.37.46-.12.55-.35,1-.55.07,0,.41-.16.45-.18a6.52,6.52,0,0,1,.92-.17c.15,0,.66,0,.82,0s.66.2.84.13l-.46.05a2.41,2.41,0,0,1-.67.12l-.46.07c-.26.06-.55-.06-.78.06-.07,0-.43.15-.51.19a3.28,3.28,0,0,0-1,.61c-.21.17-.53.13-.78.22a15.27,15.27,0,0,0-2.46,1.15c-.41.23-.84.46-1.29.68A3.3,3.3,0,0,1,73.38,143.66Z" transform="translate(-24.05 -31.59)"/><path class="cls-1" d="M87.88,136.54a8.44,8.44,0,0,0-2.63-2.78l-.13-.08a6.85,6.85,0,0,0-4.45-1.48,18.73,18.73,0,0,0-2,.29l-.47.08a10.72,10.72,0,0,1-1.59.11c-.32,0-.64,0-1,0a12.42,12.42,0,0,1-4.83-.61c-.52-.17-1.06-.31-1.59-.46l-.7-.19-.27-.08a9.8,9.8,0,0,0-1-.23l-.32,0a1.85,1.85,0,0,1-.8-.16l.1-.12a2.49,2.49,0,0,0,.71.12l.34,0a9.36,9.36,0,0,1,1,.24l.27.08.71.19c.52.14,1.06.29,1.59.46a12.32,12.32,0,0,0,4.77.6c.32,0,.65,0,1,0a10.27,10.27,0,0,0,1.57-.11l.47-.08a19.11,19.11,0,0,1,2.07-.29,7.23,7.23,0,0,1,4.55,1.5l.13.09c1.32.87,2.84,1.93,3,3.64Z" transform="translate(-24.05 -31.59)"/><path class="cls-1" d="M86,142.17a3.42,3.42,0,0,1,.29-1.67l.15-.38a3.61,3.61,0,0,0,.14-1.1c0-.16,0-.32,0-.48a5.2,5.2,0,0,1,.68-2.38,8.06,8.06,0,0,1,.63-.87,6.41,6.41,0,0,0,.77-1.15,5.66,5.66,0,0,0,.57-2.37,3.44,3.44,0,0,0-.26-.89c-.2-.51-.4-1-.24-1.36l.14.07c-.13.27.06.76.25,1.23a3.47,3.47,0,0,1,.27,1,5.63,5.63,0,0,1-.59,2.44,6.44,6.44,0,0,1-.78,1.17,8.5,8.5,0,0,0-.62.86,5.19,5.19,0,0,0-.66,2.32c0,.15,0,.31,0,.47a3.65,3.65,0,0,1-.15,1.14,3.2,3.2,0,0,1-.16.39,4,4,0,0,0-.25,1.71Z" transform="translate(-24.05 -31.59)"/><path class="cls-2" d="M65.26,143.57a2.44,2.44,0,0,0,.61,0c.37-.14.15-.2.33-.39a2.4,2.4,0,0,1,1-.47,1.16,1.16,0,0,1,1.11.23c.44.33.63.25,1.14.38.2.05.31.17.52.23s.45,0,.66,0,.25.25.44.31a4.94,4.94,0,0,0,.67,0,6.55,6.55,0,0,0,2.41.25,7.34,7.34,0,0,0,2.31-1.29c.71-.54,3.64-1.61,2.9-1.71-.43,0-1.33.59-1.79.71a6.11,6.11,0,0,0-.94.42,7.48,7.48,0,0,1-2.13,1c-.33.07-.83.35-1.16.29-.14,0-.31-.23-.47-.28s-.41,0-.62,0c-.37,0-.81-.23-1.2-.32a2.61,2.61,0,0,1-.61-.11c-.21-.09-.34-.33-.51-.41-.44-.22-1,0-1.47-.06a7.47,7.47,0,0,0-1.51-.31,2.81,2.81,0,0,0-1.35.41c-.31.15-1,.84-.43,1.1" transform="translate(-24.05 -31.59)"/><path class="cls-1" d="M73.64,144.22a6.38,6.38,0,0,1-1.29-.19l-.64-.12h-.27a.94.94,0,0,1-.41,0,.81.81,0,0,1-.3-.21l-.13-.1a1,1,0,0,0-.3,0,1.09,1.09,0,0,1-.36,0,1,1,0,0,1-.28-.13,1,1,0,0,0-.24-.1l-.39-.08a1.47,1.47,0,0,1-.78-.32,1.08,1.08,0,0,0-1-.21,2.2,2.2,0,0,0-.95.45.19.19,0,0,0-.07.13c0,.12-.06.19-.29.27a1.27,1.27,0,0,1-.44.05h-.19v-.16h.2a1.2,1.2,0,0,0,.39,0c.17-.06.18-.09.18-.14a.32.32,0,0,1,.12-.22,2.26,2.26,0,0,1,1-.5,1.25,1.25,0,0,1,1.16.24,1.31,1.31,0,0,0,.72.29l.4.08a1.47,1.47,0,0,1,.28.12.74.74,0,0,0,.24.11.76.76,0,0,0,.3,0,1.09,1.09,0,0,1,.36,0,.7.7,0,0,1,.19.14.74.74,0,0,0,.25.17,1,1,0,0,0,.35,0h.31l.64.13a4,4,0,0,0,1.74.12,7.38,7.38,0,0,0,2.29-1.28A10.77,10.77,0,0,1,78,141.9a9.45,9.45,0,0,0,1.39-.73h0a4.2,4.2,0,0,0-1,.37,5.24,5.24,0,0,1-.8.34,4.39,4.39,0,0,0-.84.37l-.09,0c-.22.11-.43.24-.62.35a4.59,4.59,0,0,1-1.52.67,2,2,0,0,0-.39.13,1.76,1.76,0,0,1-.8.16.72.72,0,0,1-.27-.15.55.55,0,0,0-.53-.14h-.29a5.54,5.54,0,0,1-.73-.18c-.16,0-.32-.11-.47-.14a1.75,1.75,0,0,0-.24,0,1.23,1.23,0,0,1-.4-.08,1.26,1.26,0,0,1-.31-.25.73.73,0,0,0-.19-.17,1.53,1.53,0,0,0-.83-.06,3.22,3.22,0,0,1-.62,0,4.22,4.22,0,0,1-.59-.15,2.38,2.38,0,0,0-2.1.19l-.12.06c-.22.1-.63.48-.63.73a.26.26,0,0,0,.19.21l-.06.15a.42.42,0,0,1-.29-.36c0-.35.47-.76.72-.88l.12-.06a2.64,2.64,0,0,1,1.26-.36H67a2.88,2.88,0,0,1,.9.17,4.16,4.16,0,0,0,.56.14,2.81,2.81,0,0,0,.58,0,1.69,1.69,0,0,1,.92.08.88.88,0,0,1,.24.2.86.86,0,0,0,.26.21,1,1,0,0,0,.35.07,2.13,2.13,0,0,1,.25,0l.49.14a4,4,0,0,0,.7.18h.26a.93.93,0,0,1,.37,0,.76.76,0,0,1,.26.15.58.58,0,0,0,.21.12,1.5,1.5,0,0,0,.72-.16,3.84,3.84,0,0,1,.41-.13,4.32,4.32,0,0,0,1.46-.64c.2-.12.41-.25.64-.37l.09,0a4.22,4.22,0,0,1,.87-.39,5.89,5.89,0,0,0,.78-.32,3.82,3.82,0,0,1,1-.39c.06,0,.19,0,.2.13s-.29.35-1.49.91a12.85,12.85,0,0,0-1.55.81,7.27,7.27,0,0,1-2.34,1.3A1.77,1.77,0,0,1,73.64,144.22Z" transform="translate(-24.05 -31.59)"/><path class="cls-2" d="M62.5,137.08c.06.43.12.76-.17,1.07s-.75.21-1.17,0c-.72-.31-1.63-.37-2-1.12a3,3,0,0,1,0-2.3c.31-.64.33-1.83,1.18-1.93.2,0,.36.09.57.07s.3-.2.54-.3a4.93,4.93,0,0,0,1.14-.38,1.25,1.25,0,0,1,1.12-.29c.42.08.69.32,1.14.33.2,0,.41-.06.61,0s.38.16.63.2.42-.07.61,0,.36.18.58.22a1.63,1.63,0,0,1,1.14.43c.27.24.44.62.72.81s.83-.06,1.15.23.25.63.63.88.71.32,1,.54.66.39,1,.65c.7.55,1.07,1.23,1.89,1.56a6.62,6.62,0,0,0,2.17.86c.34,0,.69,0,1,0s1.17-.21,1.57,0a10.72,10.72,0,0,1-3.14.27,3.26,3.26,0,0,1-2.12-.53,11,11,0,0,0-2-1.34,2,2,0,0,1-.94-.75,2.38,2.38,0,0,0-1-.68,10.09,10.09,0,0,0-1.15-.64c-.43-.18-.5-.61-.87-.77-.16-.07-.4,0-.57-.08a4.07,4.07,0,0,1-.61-.44c-.39-.24-.78-.16-1.19-.33s-.63-.41-1-.4-.82.19-1.26.2a2.51,2.51,0,0,0-.61,0c-.3.09-.25.22-.48.35-.43.24-.88-.27-1.14-.13s-.11.54-.11.66c-.45,0-.33.52-.56.75s-.77.16-.82.73a6.71,6.71,0,0,0,.18,1.06C60.3,137.48,61.76,136.92,62.5,137.08Z" transform="translate(-24.05 -31.59)"/><path class="cls-1" d="M76.11,138.9a3.24,3.24,0,0,1-1.85-.56l-.33-.25A8.29,8.29,0,0,0,72.28,137a2.15,2.15,0,0,1-1-.78,1.68,1.68,0,0,0-.67-.52l-.28-.14-.36-.22a7.29,7.29,0,0,0-.78-.42,1.23,1.23,0,0,1-.51-.43,1,1,0,0,0-.37-.34c-.13,0-.38,0-.56-.07a1.6,1.6,0,0,1-.38-.26,2,2,0,0,0-.24-.19,1.69,1.69,0,0,0-.65-.2,2.22,2.22,0,0,1-.53-.12l-.32-.16a1.39,1.39,0,0,0-.67-.24,3.19,3.19,0,0,0-.63.1,4.55,4.55,0,0,1-.66.1H63.6a1.75,1.75,0,0,0-.47,0,.48.48,0,0,0-.27.16.62.62,0,0,1-.49.26,1.32,1.32,0,0,1-.49-.13c-.15-.06-.29-.12-.36-.08s-.07.11-.07.55V134h-.08c-.21,0-.25.14-.32.36a.91.91,0,0,1-.18.37,1.06,1.06,0,0,1-.4.22c-.21.08-.37.14-.4.46a2.42,2.42,0,0,0,.1.63,3.28,3.28,0,0,1,.08.41c0,.37.3.52.86.52l.54,0a3.52,3.52,0,0,1,.87,0h.06v.13a1.2,1.2,0,0,1-.2,1.07.71.71,0,0,1-.54.25,1.74,1.74,0,0,1-.68-.19l-.05,0a5.71,5.71,0,0,0-.58-.21,2.24,2.24,0,0,1-1.48-1,3.09,3.09,0,0,1,0-2.37,4.77,4.77,0,0,0,.21-.61c.17-.6.37-1.28,1-1.36a.73.73,0,0,1,.3,0,.8.8,0,0,0,.27,0,.46.46,0,0,0,.29-.14.91.91,0,0,1,.23-.15,2.17,2.17,0,0,1,.49-.14,1.58,1.58,0,0,0,.63-.24,1.38,1.38,0,0,1,1.18-.29,2,2,0,0,1,.51.16,1.77,1.77,0,0,0,.62.16h0l.24,0a1.37,1.37,0,0,1,.35,0,1.48,1.48,0,0,1,.37.11,1,1,0,0,0,.26.09.94.94,0,0,0,.29,0,.92.92,0,0,1,.33,0,1.33,1.33,0,0,1,.3.11.9.9,0,0,0,.27.11l.21,0a1.44,1.44,0,0,1,1,.42,2.47,2.47,0,0,1,.32.39,2,2,0,0,0,.39.42.64.64,0,0,0,.35.08h.3a.7.7,0,0,1,.5.16,1.1,1.1,0,0,1,.26.4,1.09,1.09,0,0,0,.37.47,3.8,3.8,0,0,0,.49.26,2.89,2.89,0,0,1,.55.29l.36.22a6.15,6.15,0,0,1,.62.42,6.9,6.9,0,0,1,.67.64,3.66,3.66,0,0,0,1.2.92,7.83,7.83,0,0,1,.71.35,3.52,3.52,0,0,0,1.43.5h.46a3.47,3.47,0,0,1,.57,0,2,2,0,0,0,.51,0,5.05,5.05,0,0,1,.67-.06,1.11,1.11,0,0,1,.41.06l.21.09-.22.06a6.26,6.26,0,0,1-1.86.28h-.54a4.52,4.52,0,0,0-.75,0ZM65,132.77a1.5,1.5,0,0,1,.75.26l.3.15a2.27,2.27,0,0,0,.5.12,1.5,1.5,0,0,1,.7.22,1.21,1.21,0,0,1,.26.2,1.7,1.7,0,0,0,.34.23.72.72,0,0,0,.26,0,1,1,0,0,1,.31,0,1.24,1.24,0,0,1,.43.39,1,1,0,0,0,.44.38,7.53,7.53,0,0,1,.8.43l.36.22.27.14a2,2,0,0,1,.73.56,1.84,1.84,0,0,0,.9.73A8.4,8.4,0,0,1,74,138l.34.25a3,3,0,0,0,1.75.53h.31a4.9,4.9,0,0,1,.78,0h.53a6.09,6.09,0,0,0,1.45-.17,4.76,4.76,0,0,0-.64.06,2.37,2.37,0,0,1-.55,0,3.14,3.14,0,0,0-.54,0,3.85,3.85,0,0,1-.48,0,3.61,3.61,0,0,1-1.5-.52,5.54,5.54,0,0,0-.69-.34,3.64,3.64,0,0,1-1.25-1,6.59,6.59,0,0,0-.66-.62,4.56,4.56,0,0,0-.6-.41l-.37-.23a3.74,3.74,0,0,0-.52-.28,3.2,3.2,0,0,1-.52-.27,1.14,1.14,0,0,1-.42-.53,1,1,0,0,0-.22-.35.71.71,0,0,0-.55-.11.9.9,0,0,1-.59-.11,1.69,1.69,0,0,1-.42-.46,2.77,2.77,0,0,0-.31-.36,1.29,1.29,0,0,0-.89-.38l-.21,0a1.66,1.66,0,0,1-.32-.12.7.7,0,0,0-.26-.1.68.68,0,0,0-.28,0,1.28,1.28,0,0,1-.34,0,1.17,1.17,0,0,1-.3-.1.93.93,0,0,0-.32-.1,1.1,1.1,0,0,0-.31,0l-.26,0h0a1.94,1.94,0,0,1-.68-.17,2.08,2.08,0,0,0-.48-.16,1.19,1.19,0,0,0-1.06.27,1.52,1.52,0,0,1-.68.26,3.48,3.48,0,0,0-.47.14.63.63,0,0,0-.18.12.64.64,0,0,1-.38.18.88.88,0,0,1-.33,0,.66.66,0,0,0-.24,0c-.56.07-.73.67-.9,1.25a4.19,4.19,0,0,1-.22.63,3,3,0,0,0,0,2.23,2.11,2.11,0,0,0,1.37.88,5.46,5.46,0,0,1,.61.21l0,0a1.79,1.79,0,0,0,.62.18.53.53,0,0,0,.42-.2c.25-.27.21-.55.16-.94v0a5.07,5.07,0,0,0-.77,0,5.07,5.07,0,0,1-.55,0c-.43,0-.94-.07-1-.66a3,3,0,0,0-.08-.39,2.8,2.8,0,0,1-.1-.68.65.65,0,0,1,.51-.6.83.83,0,0,0,.34-.19.76.76,0,0,0,.14-.3.54.54,0,0,1,.39-.46c0-.35,0-.59.15-.66a.62.62,0,0,1,.5.07.74.74,0,0,0,.64.06.45.45,0,0,0,.16-.14.62.62,0,0,1,.34-.22,2.2,2.2,0,0,1,.52,0h.11a4.35,4.35,0,0,0,.63-.1,4.35,4.35,0,0,1,.63-.1Z" transform="translate(-24.05 -31.59)"/><path class="cls-2" d="M62.33,140.19c-.3-.32-1.33-.73-1.67-.3,0-.26-.29-.27-.51-.21,0-.36-.41-.71-.5-1.08-.13-.56.08-.73.24-1.14a2.61,2.61,0,0,1,.52-1c.26-.28.68-.33.79-.7.58,0,.78-.47,1.27-.63s.77.11,1.22-.11c.08.43.79.34,1.14.33,0,.11.07.27,0,.39a1.38,1.38,0,0,0,.94-.1c.12.44.85.28,1.2.27-.06.56.33.41.74.41.11.46.79.28,1.15.28.3.61,1.19.23,1.76.22s1.29,0,2,.07c.32,0,.65,0,1,0a1.81,1.81,0,0,0,1-.16c.31-.11.73,0,1-.19s.28-.52.62-.51c0-.33.54-.48.77-.66a4.72,4.72,0,0,1,.8-.51A17.1,17.1,0,0,0,80,134c-1,.22-2.6.94-3.66,1.12a5.4,5.4,0,0,0-1.46.37c-.4.19-1.23.14-1.49.48l0-.18a19.67,19.67,0,0,1-2.45-.14c-.83-.09-1.61.24-2.4.18a3.39,3.39,0,0,1-1.13-.19c-.18-.09-.25-.29-.49-.36s-.44,0-.67-.07c-.4-.1-.74-.45-1.16-.55a5.61,5.61,0,0,0-1.23-.05c-.88,0-1.34-.6-2.09.11a1.79,1.79,0,0,1-1.09.53,1,1,0,0,0-.82.75c-.44,0-.89.64-1,.94a2.16,2.16,0,0,0-.2,1.51c.1.37.16.21.39.47a1,1,0,0,1,.2.72c0,.44.11,1.35.78,1.16-.16.64,1.44.48,1.84.49a2.74,2.74,0,0,0,1.07,0c.28-.13.72-.75.53-1.09C63.14,139.62,62.49,140.35,62.33,140.19Z" transform="translate(-24.05 -31.59)"/><path class="cls-1" d="M62.47,141.37h0l-.41,0-.23,0h-.62c-.7,0-1.08-.09-1.24-.28a.31.31,0,0,1-.07-.2h-.08c-.6,0-.67-.92-.69-1.27v0a.87.87,0,0,0-.18-.61.58.58,0,0,0-.19-.16c-.09-.06-.15-.11-.22-.35a2.3,2.3,0,0,1,.21-1.57c0-.09.52-.91,1-1a1.06,1.06,0,0,1,.87-.76l.16,0a1.5,1.5,0,0,0,.9-.47,1.12,1.12,0,0,1,.79-.37,2.47,2.47,0,0,1,.58.11,2.79,2.79,0,0,0,.74.13h.5a4,4,0,0,1,.78.06,2.52,2.52,0,0,1,.62.29,1.91,1.91,0,0,0,.54.26,2.77,2.77,0,0,0,.3,0,1.26,1.26,0,0,1,.38,0,.71.71,0,0,1,.33.24.91.91,0,0,0,.16.13,2.73,2.73,0,0,0,1,.17h.16a4.79,4.79,0,0,0,1.12-.09,6.39,6.39,0,0,1,1-.11l.29,0a19,19,0,0,0,2.45.14h.07v.1a2,2,0,0,1,.82-.25,3.21,3.21,0,0,0,.59-.14,4.7,4.7,0,0,1,1.36-.36l.11,0a14.11,14.11,0,0,0,2-.6,13.72,13.72,0,0,1,1.65-.52l.35-.08-.28.22a6,6,0,0,1-1.46.62c-.33.11-.65.22-.85.31a4.36,4.36,0,0,0-.78.51l-.25.15c-.22.12-.47.25-.49.45v.08h-.08c-.14,0-.2.08-.29.21a.71.71,0,0,1-.28.29,1.31,1.31,0,0,1-.59.13,1.38,1.38,0,0,0-.43.07l-.13,0a1.64,1.64,0,0,1-.86.12l-.76,0h-.21l-.69,0c-.42,0-.85,0-1.26,0l-.48.06a4.22,4.22,0,0,1-.61.07.77.77,0,0,1-.72-.35h-.18a2,2,0,0,1-.35,0c-.13,0-.51,0-.62-.32h-.36a.41.41,0,0,1-.32-.11.42.42,0,0,1-.1-.32H66.8l-.37,0c-.13,0-.51,0-.65-.27a1.51,1.51,0,0,1-.92.06h-.07v-.08a1.15,1.15,0,0,0,0-.16l0-.13h0l-.32,0c-.16,0-.63,0-.77-.32a1.38,1.38,0,0,1-.61,0,1.34,1.34,0,0,0-.53,0,1.57,1.57,0,0,0-.49.28,1.31,1.31,0,0,1-.75.34,1,1,0,0,1-.46.44,1.15,1.15,0,0,0-.33.25,1.66,1.66,0,0,0-.4.71c0,.09-.06.18-.1.28s-.08.19-.12.27a1,1,0,0,0-.12.82A2.07,2.07,0,0,0,60,139a1.35,1.35,0,0,1,.26.56c.24,0,.4,0,.48.16a.71.71,0,0,1,.43-.12,2,2,0,0,1,1.26.52,2.54,2.54,0,0,0,.25-.1,1.15,1.15,0,0,1,.5-.17.4.4,0,0,1,.36.22.64.64,0,0,1,0,.46,1.37,1.37,0,0,1-.58.74A1,1,0,0,1,62.47,141.37Zm-.7-.2h.06l.24,0,.4,0a1,1,0,0,0,.4-.06,1.26,1.26,0,0,0,.49-.65.42.42,0,0,0,0-.33.24.24,0,0,0-.22-.14,1.06,1.06,0,0,0-.43.15.81.81,0,0,1-.32.11.17.17,0,0,1-.12,0,1.86,1.86,0,0,0-1.14-.47.5.5,0,0,0-.41.16l-.12.14,0-.18c0-.08,0-.17-.22-.17l-.19,0-.11,0v-.11a1,1,0,0,0-.24-.56,1.79,1.79,0,0,1-.26-.49,1.13,1.13,0,0,1,.13-.93c0-.08.08-.16.12-.26l.1-.27a1.77,1.77,0,0,1,.43-.77,1.64,1.64,0,0,1,.37-.28c.19-.11.35-.2.4-.4l0-.05h.06a1.23,1.23,0,0,0,.71-.32,2,2,0,0,1,.54-.3,1.48,1.48,0,0,1,.59,0h.23a.81.81,0,0,0,.38-.08l.1-.05,0,.1c0,.2.24.29.64.29l.31,0h.21l0,.1a1.15,1.15,0,0,0,0,.16.4.4,0,0,1,0,.15,1.3,1.3,0,0,0,.82-.1l.09-.06,0,.11c0,.17.21.24.53.24l.36,0h.32v.09c0,.14,0,.23.05.28a.25.25,0,0,0,.2.06h.48v.06c0,.18.19.26.49.26l.34,0H69l0,0a.59.59,0,0,0,.6.31,3.83,3.83,0,0,0,.58-.07l.51-.06c.41,0,.85,0,1.27,0,.23,0,.45,0,.68,0h.21l.77,0a1.52,1.52,0,0,0,.79-.11l.13-.05a1.85,1.85,0,0,1,.48-.07,1.21,1.21,0,0,0,.52-.11.63.63,0,0,0,.23-.23c.08-.13.17-.27.36-.28.07-.25.34-.39.56-.51l.23-.14a4.48,4.48,0,0,1,.81-.52l.14-.06a12.28,12.28,0,0,1-1.46.41h-.11a5,5,0,0,0-1.32.35,2.51,2.51,0,0,1-.63.16,1.38,1.38,0,0,0-.84.3l-.11.15,0-.19s0-.06,0-.09v0a20,20,0,0,1-2.39-.14l-.28,0a6,6,0,0,0-1,.11,5,5,0,0,1-1.16.09h-.16a2.84,2.84,0,0,1-1-.19.78.78,0,0,1-.2-.16.68.68,0,0,0-.27-.2,1.27,1.27,0,0,0-.34,0l-.32,0a2.13,2.13,0,0,1-.59-.28,2,2,0,0,0-.58-.27,3.94,3.94,0,0,0-.74-.06h-.5a3,3,0,0,1-.79-.13,1.73,1.73,0,0,0-.53-.11,1,1,0,0,0-.68.32,1.7,1.7,0,0,1-1,.52l-.16,0A.87.87,0,0,0,60,136l0,.06h-.06c-.38,0-.81.59-1,.9a2.08,2.08,0,0,0-.2,1.45c.06.19.09.21.16.25a1.33,1.33,0,0,1,.22.19,1,1,0,0,1,.22.71v.05c0,.48.12,1.12.53,1.12l.15,0,.13,0,0,.13a.19.19,0,0,0,0,.18c.11.15.49.22,1.11.22h.56Z" transform="translate(-24.05 -31.59)"/><path class="cls-2" d="M68.09,130.65a6.34,6.34,0,0,0,1.1.34,5.48,5.48,0,0,1,1,.38c.33.12.79.11,1.15.21s.75.22,1.12.3a14.5,14.5,0,0,0,2.37.63,6.42,6.42,0,0,0,1.75-.17,4.86,4.86,0,0,0,.76-.26,1.23,1.23,0,0,1,.81-.14c.57,0,1.18-.09,1.73-.07s1.63-.13,2.15.27a12.89,12.89,0,0,1-2.88.18,13.33,13.33,0,0,0-2.36.53,9.17,9.17,0,0,1-2.43.37c-.17,0-.39-.14-.52-.12s-.33.21-.55.25a3.11,3.11,0,0,1-.62-.06c-.17,0-.44.08-.6.07s-.56-.27-.89-.27-.57.08-.88-.15-.4-.52-.64-.63-.32,0-.48,0-.25-.15-.44-.22a7.52,7.52,0,0,0-1-.2c-.09,0-.28-.17-.38-.21s-.29-.09-.46-.14c-.38-.12-1.74-.21-1.69-.78.48-.06,1,0,1.45-.09A2.53,2.53,0,0,1,68.09,130.65Z" transform="translate(-24.05 -31.59)"/><path class="cls-1" d="M72.15,133.44h0a1.36,1.36,0,0,1-.43-.14,1.17,1.17,0,0,0-.45-.13H71a.87.87,0,0,1-.68-.16,1.72,1.72,0,0,1-.29-.31,1.26,1.26,0,0,0-.34-.32.3.3,0,0,0-.21,0,.7.7,0,0,1-.25,0,.66.66,0,0,1-.28-.13.69.69,0,0,0-.17-.1,2,2,0,0,0-.55-.11,4.3,4.3,0,0,1-.45-.08,1.17,1.17,0,0,1-.24-.13l-.15-.09-.26-.08-.19,0a2.93,2.93,0,0,0-.36-.08c-.57-.11-1.44-.27-1.39-.79v-.06h.07a5.12,5.12,0,0,1,.67,0,7.11,7.11,0,0,0,.78,0l.16,0a4.06,4.06,0,0,1,.7-.08,1.48,1.48,0,0,1,.57.1,6,6,0,0,0,1.09.34,3.57,3.57,0,0,1,.74.25l.32.13a2.55,2.55,0,0,0,.6.12,3.2,3.2,0,0,1,.54.09l.15,0c.32.1.65.19,1,.26a9.18,9.18,0,0,1,.9.28,5.29,5.29,0,0,0,1.45.35,6.48,6.48,0,0,0,1.73-.17,5.5,5.5,0,0,0,.75-.25,1.19,1.19,0,0,1,.59-.16h.25c.29,0,.59,0,.88,0a8.14,8.14,0,0,1,.86,0h.84a2.3,2.3,0,0,1,1.35.3l.11.08-.13.05a6,6,0,0,1-2,.18h-.91a10.66,10.66,0,0,0-1.87.39l-.48.14a10,10,0,0,1-2.36.37h-.09a.82.82,0,0,1-.29-.07,1,1,0,0,0-.2,0,.55.55,0,0,0-.27.11,1,1,0,0,1-.29.14,1.44,1.44,0,0,1-.42,0l-.22,0h0l-.27,0A1.65,1.65,0,0,1,72.15,133.44Zm-1-.44h.06a1.16,1.16,0,0,1,.52.15,1.45,1.45,0,0,0,.37.12,1.92,1.92,0,0,0,.3,0l.29,0a1.86,1.86,0,0,1,.26,0,.87.87,0,0,0,.36,0,.61.61,0,0,0,.23-.11.55.55,0,0,1,.62-.08.71.71,0,0,0,.23.06h.09a9.63,9.63,0,0,0,2.32-.37l.47-.13a10.32,10.32,0,0,1,1.9-.4h1.3a6,6,0,0,0,1.4-.11,2.57,2.57,0,0,0-1.11-.18h-.85a8,8,0,0,0-.84,0,8.83,8.83,0,0,1-.89,0h-.08a1.19,1.19,0,0,0-.7.14,5.35,5.35,0,0,1-.77.27,6.66,6.66,0,0,1-1.52.18h-.25a5.14,5.14,0,0,1-1.5-.36,7.24,7.24,0,0,0-.88-.27c-.33-.07-.66-.17-1-.26l-.14,0a2.82,2.82,0,0,0-.52-.09,3.15,3.15,0,0,1-.64-.13l-.33-.13a3,3,0,0,0-.7-.24,6.07,6.07,0,0,1-1.12-.35,1.36,1.36,0,0,0-.51-.09,4.06,4.06,0,0,0-.68.08l-.16,0a5.49,5.49,0,0,1-.8.06l-.58,0c.06.33.8.47,1.26.55l.38.08.18.06a1.29,1.29,0,0,1,.28.08,1,1,0,0,1,.18.11,1.2,1.2,0,0,0,.19.1,3.58,3.58,0,0,0,.43.08,2,2,0,0,1,.59.12l.2.11a.55.55,0,0,0,.23.12.64.64,0,0,0,.19,0,.5.5,0,0,1,.3,0,1.25,1.25,0,0,1,.39.37,1.45,1.45,0,0,0,.27.28A.75.75,0,0,0,71,133Z" transform="translate(-24.05 -31.59)"/><path class="cls-2" d="M88.43,130.39c.16.58.23,1.19.41,1.77-.37.22-.21.94-.36,1.3a4.66,4.66,0,0,1-.32.68,2.69,2.69,0,0,0-.26.54c-.12.3-.3.35-.46.61a2.38,2.38,0,0,0-.16.61,6.26,6.26,0,0,0-.47,1.64,22.14,22.14,0,0,1,1.39-2.41c.23-.31.38-.71.63-1a2.53,2.53,0,0,0,.64-1,15.22,15.22,0,0,0,.25-2.37,2.39,2.39,0,0,0-.49-1.8.55.55,0,0,0-.87.13C88.09,129.49,88.32,130,88.43,130.39Z" transform="translate(-24.05 -31.59)"/><path class="cls-1" d="M86.65,138l.08-.48a5,5,0,0,1,.35-1.33,1.75,1.75,0,0,0,.12-.32,1.42,1.42,0,0,0,0-.22,1.14,1.14,0,0,1,.12-.41,1.56,1.56,0,0,1,.22-.26,1.14,1.14,0,0,0,.24-.34l0-.06a2,2,0,0,1,.24-.49,4,4,0,0,0,.3-.63l0,0a1.62,1.62,0,0,0,.07-.48c0-.31,0-.65.27-.82a8,8,0,0,1-.22-.94q-.07-.39-.18-.78l-.06-.21a1.33,1.33,0,0,1,0-1.15.65.65,0,0,1,1-.14,2.46,2.46,0,0,1,.52,1.87c0,.28,0,.58-.06.87a6.63,6.63,0,0,1-.2,1.51,2,2,0,0,1-.49.81l-.16.18a4,4,0,0,0-.32.54c-.1.16-.19.34-.3.49A18.06,18.06,0,0,0,87,137.33Zm2.19-9.12a.49.49,0,0,0-.41.26c-.21.29-.1.65,0,1a1.72,1.72,0,0,1,.07.21c.07.26.12.53.17.78s.14.67.24,1l0,.06-.06,0c-.19.12-.21.43-.24.73a1.49,1.49,0,0,1-.09.54v0a5.55,5.55,0,0,1-.31.66,1.8,1.8,0,0,0-.23.46l0,.06a1.26,1.26,0,0,1-.27.39,1.14,1.14,0,0,0-.2.23,1,1,0,0,0-.1.36c0,.07,0,.16,0,.23a1.86,1.86,0,0,1-.13.34A4.2,4.2,0,0,0,87,137a16.2,16.2,0,0,1,1.16-1.95,5.5,5.5,0,0,0,.28-.48,4.73,4.73,0,0,1,.35-.56l.16-.19a1.9,1.9,0,0,0,.46-.74,7,7,0,0,0,.19-1.48,8.69,8.69,0,0,1,.07-.88,2.33,2.33,0,0,0-.48-1.73A.51.51,0,0,0,88.84,128.89Z" transform="translate(-24.05 -31.59)"/><path class="cls-3" d="M90.75,148.38s0,2.61,0,3.48-.24,2.37-.39,3.15c-.08.42-.43,1.66-.43,1.66s-.06-2.8,0-3.73C90,151.79,90.75,148.38,90.75,148.38Z" transform="translate(-24.05 -31.59)"/><path class="cls-4" d="M73.72,126.33a21.56,21.56,0,0,0,.1-3.09c-.17-1.4-1.13-4.3-1.15-5.72A23.66,23.66,0,0,1,74,111.09c.53-1.32,2.25-3.69,2.6-5.07a7.24,7.24,0,0,0,0-2.93c-.16-.54-.88-1.45-1-2a20.31,20.31,0,0,1,0-3.55,12.36,12.36,0,0,1,1.66.55,11.73,11.73,0,0,1,1.34,1.07A51.26,51.26,0,0,1,78.66,92c.23-1.32,1.38-4.3,1.6-5.75a33.55,33.55,0,0,0,.5-3.72c0-1.1-.37-3.33-.35-4.42,0-.52.17-2.52.17-2.52s.89,2.6,1.17,3.46A48,48,0,0,1,83,83.89a21.76,21.76,0,0,1-.08,4.49c-.22,1.78-1.09,4.66-1,6.34a13.78,13.78,0,0,0,1,4.41c.18.33.82,1.27.82,1.27s1.6-2.12,2-2.89a25.27,25.27,0,0,0,2.39-5.28,36.72,36.72,0,0,0,.09-4.81c0-1.1.05-3.29.08-4.39,0-.93,0-2.81.06-3.76,0-.75.06-3,.06-3s1,2.49,1.24,3.18c.36,1.28,0,3.25.18,4.57S91,87.82,91.2,89.15a25.43,25.43,0,0,1-.08,5c-.13.93-.73,2.72-.91,3.64-.12.65-.62,2-.36,2.6a2.37,2.37,0,0,0,1.14.81,1.38,1.38,0,0,0,.83,0c.71-.4,1.24-2.19,1.93-2.63,2.82-1.76,4.62-1.06,4.62-1.06.23,2.2.15,3.84-3.42,5.33-.49.21,1.22.57,1.64.49,1.25-.26,3.31-2,4.33-2.75,1.25-.95,3.55-3.1,4.67-4.2.92-.89,2.55-2.86,3.52-3.69a25.72,25.72,0,0,1,4-2.86,15.41,15.41,0,0,1,3.78-1.07c1.53-.18,4.62.33,6.16.32,1.73,0,5.19-.26,6.9-.51,2.26-.33,6.65-1.67,8.91-1.93a71.56,71.56,0,0,1,9.93-.13c2.64.18,8,1.23,10.3,2.48,1.39.75,3.54,3.13,4.62,4.26,1.29,1.36,3.42,4.48,4.81,5.73.4.35,1.4.79,1.76,1.18a12.38,12.38,0,0,1,2,4.32c.56,2.63-.93,8.17-.19,10.76.07.27.77.72.6.95s-1.37-.21-1.77-.45a9.52,9.52,0,0,1-2.35-2.66,9.08,9.08,0,0,1-.49-1.47s-3.73,4.17-4.39,5.88c-.5,1.29-1,4.24-.52,5.53.34.86,2.06,1.86,2.77,2.45a39.85,39.85,0,0,0,3.39,2.58c.78.48,2.39,1.16,3.11,1.72a3.47,3.47,0,0,1,1,1.06,8.75,8.75,0,0,1,0,2.5c0,.58,0,1.73,0,2.3-.15,1.84-.95,5.45-1.08,7.3s.18,5.41.09,7.21a16.65,16.65,0,0,1-.5,4.37,6.8,6.8,0,0,1-1.18,1.34,2,2,0,0,0-.42.51,6.66,6.66,0,0,0,.08,1.47,2.33,2.33,0,0,1-.12.93c-.43.61-2.64,1.32-2.64,1.32l-2.73.58-.19-1-1.46.19-.09-1a16.92,16.92,0,0,1,1-2.49c.51-.8,2-2.06,2.45-2.88a12.79,12.79,0,0,0,.88-2.5,75,75,0,0,0,1.19-7.91c0-.63.42-4.79-.1-6.27a11.12,11.12,0,0,0-2.24-3,52.62,52.62,0,0,0-6.81-4.82c-.92-.58-2.87-1.58-3.72-2.26a8.81,8.81,0,0,1-.72-.74s.33,1.73.48,2.3a5,5,0,0,0,.5,1.58c.18.22.88.29,1,.54a3.51,3.51,0,0,1,.07,1.68,4.14,4.14,0,0,1-.33,1.24,28,28,0,0,1-2.56,2.67,69.16,69.16,0,0,0-4.07,6c-.8,1.29-2.92,5.28-2.92,5.28a17,17,0,0,0-1.41,2.69c-.09.38.05,1.18,0,1.56a2.68,2.68,0,0,1-.33.84,2.21,2.21,0,0,1-.74.4,10.6,10.6,0,0,1-1.57.18l-.23,1a4.55,4.55,0,0,1-.23,1.15,3.08,3.08,0,0,1-.64.51l-2.1.69-2.52.9-.62-.43-1.36,0a19.5,19.5,0,0,1,.89-2.49,42.44,42.44,0,0,1,3.31-4.22s5.13-6.67,6.74-9a32.89,32.89,0,0,0,3.89-7,18.72,18.72,0,0,0,.17-4,11.12,11.12,0,0,0-.27-2.3,22.8,22.8,0,0,0-1.4-3,19.88,19.88,0,0,0-1.83-3,17.34,17.34,0,0,0-1.55-1.28l-6.8.51s-3.68.51-4.92.53c-1.62,0-4.86-.3-6.47-.12a42.32,42.32,0,0,0-4.2,1.08,39,39,0,0,0,0,5c.19,1.09,1.11,3.12,1.33,4.2.25,1.24.37,3.78.53,5,.2,1.58.71,4.73,1,6.28.22,1,.81,3.07,1.07,4.1a13.79,13.79,0,0,1,.39,1.89c0,.55-.15,2.19-.15,2.19l-1.16.7a7.22,7.22,0,0,0-1.27.92,3.48,3.48,0,0,0-.45,1.67,2.45,2.45,0,0,0,.2.52l-.75,1.14-1.29.08-3.31,0-.09-.62-.94,0a20.72,20.72,0,0,1,.88-2.49,11,11,0,0,1,1.28-1.54,14.7,14.7,0,0,0,1.7-1.64,10.49,10.49,0,0,0,.65-3.75,34.5,34.5,0,0,0-.78-6,28.34,28.34,0,0,0-1.39-4.42c-.34-.76-1.26-2.16-1.51-2.94a31.77,31.77,0,0,1-.56-4.09s-3.75,5.33-4.82,7.22a74.54,74.54,0,0,0-3.49,7.67c-.49,1.27-1.65,5.19-1.65,5.19a22.15,22.15,0,0,1-.48,3.23,4.87,4.87,0,0,1-.87,1.24,11.38,11.38,0,0,0-1.16,1,2.85,2.85,0,0,0-.34,1.14,12.07,12.07,0,0,0,.39,1.78l-.11.52a39.32,39.32,0,0,1-4.84,1.59,13.7,13.7,0,0,1-1.56,0l-.3-1.26-.73.19.67-2.6s2.84-3,3.63-4.11a39.58,39.58,0,0,0,3.14-6.11,44.33,44.33,0,0,0,1.67-6c.24-1.16.61-4.69.61-4.69s.28-1.74.46-2.29c.52-1.55,2.83-5.91,2.83-5.91a19.22,19.22,0,0,0,1.19-2.8,6.62,6.62,0,0,0,0-1l-2.81-.89-3.53-1.32-2.8-1.3a13,13,0,0,0-2,0c-.86.15-2.42,1-3.26,1.19-.49.12-2,.28-2,.28a12.2,12.2,0,0,1-3.24,0,9.14,9.14,0,0,1-2-1.6l-1.66-.87a.85.85,0,0,0-.94,0c-.53.3-1.78,1.38-2.44,1.73a9.62,9.62,0,0,0-2,1,15.86,15.86,0,0,0-1,2.18c-.28.49-1.3,1.85-1.3,1.85a4.64,4.64,0,0,1-.74.72c-.31.17-1,.26-1.37.4a10.86,10.86,0,0,0-1,.6l-1.88.07A9.11,9.11,0,0,1,75,127,6.46,6.46,0,0,1,73.72,126.33Z" transform="translate(-24.05 -31.59)"/><path class="cls-3" d="M127.94,113.43s-1.4,3.16-1.77,3.8-1,1.56-1.37,2.07c-.18.28-.75,1.1-.75,1.1s1.64-.29,2.18-.41a14.08,14.08,0,0,1,2.33-.34,21.08,21.08,0,0,1,3.53.45,40.58,40.58,0,0,0,4.77-.58c1-.12,3.07-.41,4.1-.48.83-.05,3.32-.05,3.32-.05l1.11,0-.46-.71a3.92,3.92,0,0,0-1-1.61,5.05,5.05,0,0,0-2.21-.23c-.54.06-1.61.25-2.15.37a15.28,15.28,0,0,1-3.43.24c-1.4-.12-4.17-.84-5.53-1.09a4,4,0,0,1-1.6-.87A9.54,9.54,0,0,1,127.94,113.43Z" transform="translate(-24.05 -31.59)"/><path class="cls-5" d="M85.26,109.62c.17.17.73.06,1,0a5,5,0,0,0,.87-.42c.2-.09.68-.23.79-.41a1.26,1.26,0,0,0-1.26-2,2.23,2.23,0,0,0-1.32.59c-.15.24,0,.84,0,1.13S85.07,109.41,85.26,109.62Z" transform="translate(-24.05 -31.59)"/><path class="cls-3" d="M92,113c-.43.68-2.17,4-2.17,4a5.3,5.3,0,0,1,2.72.62,3.69,3.69,0,0,0,3,1,12.39,12.39,0,0,0,3.33-.7c.78-.14,3.08-.17,3.08-.17a18.62,18.62,0,0,0-3.63-2.6c-.8-.25-2.56,0-3.35-.22A17.91,17.91,0,0,1,92,113Z" transform="translate(-24.05 -31.59)"/><path class="cls-1" d="M46.37,121.68,33,120.7l-.37,5-1.79-.14.89-12,1.79.13-.37,5,13.33,1Z" transform="translate(-24.05 -31.59)"/><path class="cls-1" d="M46.66,115.54l-13.32-9.3.52-2.09,16.21-2.38L49.52,104l-4.88.62-1.52,6.15,4.05,2.72Zm-5-5.74,1.23-5-4.45.52c-1.35.17-2.46.26-3.31.29a18.84,18.84,0,0,1,2.61,1.49Z" transform="translate(-24.05 -31.59)"/><path class="cls-1" d="M50.53,100.91,36.76,94.57l2.39-5.19a13.37,13.37,0,0,1,1.1-2,4.6,4.6,0,0,1,1.42-1.4,3.79,3.79,0,0,1,1.84-.5,4.78,4.78,0,0,1,2.07.45A4.68,4.68,0,0,1,48,88.38c.47,1.12.25,2.65-.64,4.6l-1.63,3.53,5.6,2.57Zm-6.38-5.15,1.64-3.56a4.16,4.16,0,0,0,.49-2.81,2.54,2.54,0,0,0-1.51-1.59,2.71,2.71,0,0,0-1.68-.25,2.22,2.22,0,0,0-1.34.78,8.94,8.94,0,0,0-.9,1.64L39.23,93.5Z" transform="translate(-24.05 -31.59)"/><path class="cls-1" d="M42.88,81.73,44,80.07l10.45,1.27-5.14-8.86,1.14-1.64L56.9,82.25a11.86,11.86,0,0,1,1.37,3.09,2.62,2.62,0,0,1-.56,2,6.35,6.35,0,0,1-1.38,1.36l-1.41-1a3.41,3.41,0,0,0,1.36-1.13,1.87,1.87,0,0,0,.34-1.31,6.09,6.09,0,0,0-1.09-2.19Z" transform="translate(-24.05 -31.59)"/><path class="cls-1" d="M66.47,76.06,57,66.61l-3.53,3.53-1.27-1.26,8.5-8.5L62,61.64l-3.54,3.55,9.46,9.45Z" transform="translate(-24.05 -31.59)"/><path class="cls-1" d="M64,57.66l1.5-1,6.78,9.91-.12-14.46,1.67-1.14,8.55,12.52-1.5,1L74.12,54.6,74.21,69l-1.66,1.13Z" transform="translate(-24.05 -31.59)"/><path class="cls-1" d="M84.72,62.18l-5.87-14,1.85-.78,2.41,5.74,7.26-3.05L88,44.38l1.85-.78,5.87,14-1.85.78-2.76-6.59-7.27,3,2.77,6.59Z" transform="translate(-24.05 -31.59)"/><path class="cls-1" d="M107.78,49.51l2.07.11a6.76,6.76,0,0,1-1.51,4.13,6.26,6.26,0,0,1-3.68,2,7.28,7.28,0,0,1-4.1-.21,6.26,6.26,0,0,1-2.85-2.39,10.24,10.24,0,0,1-1.57-3.83,9.07,9.07,0,0,1,.09-4.23,6.23,6.23,0,0,1,2-3.12,7.52,7.52,0,0,1,3.43-1.61,6.22,6.22,0,0,1,4,.4,6,6,0,0,1,2.75,2.78l-1.85.84a4.62,4.62,0,0,0-2-2.07A4.07,4.07,0,0,0,102,42.1a4.93,4.93,0,0,0-2.7,1.39A4.44,4.44,0,0,0,98.07,46a9.13,9.13,0,0,0,.1,3,9.37,9.37,0,0,0,1.2,3.2,4.22,4.22,0,0,0,2.14,1.78,4.92,4.92,0,0,0,2.66.21,4.32,4.32,0,0,0,2.61-1.51A4.92,4.92,0,0,0,107.78,49.51Z" transform="translate(-24.05 -31.59)"/><path class="cls-1" d="M112.68,39.15h2v6.47h3.62a8.46,8.46,0,0,1,3.67.59,3.6,3.6,0,0,1,1.64,1.61,4.82,4.82,0,0,1,.49,2.09,4.44,4.44,0,0,1-1.2,3.08c-.81.88-2.3,1.32-4.47,1.31h-5.76Zm2,13.45h3.67c1.49,0,2.46-.26,2.91-.79a2.85,2.85,0,0,0,.68-1.91,2.43,2.43,0,0,0-.49-1.54,2.23,2.23,0,0,0-1.31-.83,15.27,15.27,0,0,0-2.77-.19h-2.69Z" transform="translate(-24.05 -31.59)"/><path class="cls-1" d="M128.51,39.7l2,.35-1.15,6.53a2.76,2.76,0,0,0,2-.19,8.83,8.83,0,0,0,1.85-2.27,12.93,12.93,0,0,1,1.38-1.89,3.23,3.23,0,0,1,1.33-.82,3.28,3.28,0,0,1,1.71-.12c.76.13,1.16.21,1.2.23l-.3,1.71-.4-.08-.39-.08a2,2,0,0,0-1.49.21,6.14,6.14,0,0,0-1.41,1.77,8,8,0,0,1-1.69,2.16,4,4,0,0,1-1.38.57A5.63,5.63,0,0,1,134.13,51l2.2,5.51L133.88,56l-1.79-4.49a11.38,11.38,0,0,0-1.31-2.61,2.61,2.61,0,0,0-1.69-.94l-1.22,7-2-.35Z" transform="translate(-24.05 -31.59)"/><path class="cls-1" d="M142.71,42.56l1.71.64-4.19,11.25L152,46l1.89.7-5.29,14.21-1.7-.63,4.18-11.23L139.3,57.47l-1.88-.7Z" transform="translate(-24.05 -31.59)"/><path class="cls-1" d="M159,49.23l1.54,1-6.37,10.17,13.21-5.89,1.71,1.07L161,68.4l-1.54-1,6.36-10.14-13.2,5.85-1.7-1.06Zm8.3,1,1.08.67A3,3,0,0,1,166.5,52a3,3,0,0,1-2.15-.53,2.8,2.8,0,0,1-1.18-3.89l1.08.67a1.58,1.58,0,0,0,.72,2.1,2,2,0,0,0,1.26.39A1.67,1.67,0,0,0,167.27,50.18Z" transform="translate(-24.05 -31.59)"/><path class="cls-1" d="M182,83.07l.82,1.9a6.83,6.83,0,0,1-4.38.48A6.25,6.25,0,0,1,175,83.06a7.21,7.21,0,0,1-1.63-3.78,6.25,6.25,0,0,1,.88-3.61,10.34,10.34,0,0,1,2.74-3.1,8.89,8.89,0,0,1,3.83-1.79,6.15,6.15,0,0,1,3.7.42,7.53,7.53,0,0,1,2.95,2.36,6.3,6.3,0,0,1,1.41,3.75A6.06,6.06,0,0,1,187.58,81L186,79.71A4.73,4.73,0,0,0,187,77a4.11,4.11,0,0,0-.94-2.47,4.9,4.9,0,0,0-2.43-1.81,4.51,4.51,0,0,0-2.79,0,9.18,9.18,0,0,0-2.6,1.39,9.42,9.42,0,0,0-2.35,2.5,4.18,4.18,0,0,0-.64,2.7,4.87,4.87,0,0,0,1,2.48,4.3,4.3,0,0,0,2.51,1.68A5,5,0,0,0,182,83.07Z" transform="translate(-24.05 -31.59)"/><path class="cls-1" d="M181.23,92.38l11.89-6.11-2.29-4.45,1.59-.81,5.5,10.68-1.59.82L194,88.05l-11.89,6.12Z" transform="translate(-24.05 -31.59)"/><path class="cls-1" d="M185,100l14.5-4.4,3.19,10.48-1.72.52-2.6-8.56-4.44,1.35,2.44,8-1.7.52-2.44-8-4.94,1.5,2.71,8.91-1.71.52Z" transform="translate(-24.05 -31.59)"/><path class="cls-1" d="M203.74,111.44l1.17,11.87-15.08,1.49-.2-2,13.3-1.31-.77-7.86-13.31,1.31-.2-2Z" transform="translate(-24.05 -31.59)"/><path class="cls-1" d="M48.44,150.52l-1.72-5,1.51-.52,4.17,12.08-1.51.52-1.72-5-12.23,4.21-.74-2.13Z" transform="translate(-24.05 -31.59)"/><path class="cls-1" d="M44.68,163.53l-4.87.62-1.1-2,15.57-1.81,1.27,2.34L45.64,174.8l-1.15-2.09,3.13-3.81Zm4,4.28,2.85-3.51c.65-.79,1.28-1.43,1.89-2.06l0,0c-.86.18-1.78.39-2.73.5l-4.49.53Z" transform="translate(-24.05 -31.59)"/><path class="cls-1" d="M59.29,169.07a30.47,30.47,0,0,1,3,3.07c1.54,1.83,2.24,3.27,2.31,4.59a3.42,3.42,0,0,1-1.26,2.82c-1.45,1.23-3.35.95-4.9-.09l-.05,0a3.75,3.75,0,0,1-.63,3.81,20.29,20.29,0,0,0-2.19,3.58l-1.49-1.76A16.13,16.13,0,0,1,56,182c1.2-1.68,1.17-2.89-.08-4.48l-1.35-1.61L49.75,180l-1.44-1.7Zm-3.63,6,1.46,1.74c1.54,1.82,3.35,2.27,4.62,1.21,1.44-1.21,1-3-.49-4.78a11.11,11.11,0,0,0-1.53-1.58Z" transform="translate(-24.05 -31.59)"/><path class="cls-1" d="M69.47,180l-5.37,6.75c-2,2.53-1.53,4.68.27,6.11,2,1.58,4.18,1.5,6.16-1l5.37-6.75,1.77,1.4-5.29,6.65c-2.78,3.49-6.09,3.17-9,.84-2.76-2.2-3.8-5.17-1-8.72l5.33-6.69Z" transform="translate(-24.05 -31.59)"/><path class="cls-1" d="M82.35,190.82,77.7,188.4l.73-1.42,11.33,5.91L89,194.3l-4.67-2.43-6,11.47-2-1.05Z" transform="translate(-24.05 -31.59)"/><path class="cls-1" d="M93.13,193.9,88,207.5l-2.11-.79L91,193.1Z" transform="translate(-24.05 -31.59)"/><path class="cls-1" d="M93,209.35l3-14.21,2.4.51,3.86,8.34a40.27,40.27,0,0,1,2,5.26h.08a53.64,53.64,0,0,1,1-5.89l1.27-5.95,2,.44-3,14.21-2.21-.47-3.82-8.35a41.27,41.27,0,0,1-2.12-5.41h-.08c-.26,1.82-.6,3.54-1.1,5.9L95,209.79Z" transform="translate(-24.05 -31.59)"/><path class="cls-1" d="M126.23,205.07c.08,5-3.49,7.71-7.89,7.78-4.58.08-7.81-2.87-7.87-7.27-.08-4.61,3.26-7.68,7.86-7.76S126.17,200.73,126.23,205.07Zm-13.41.43c.05,3.13,2.09,5.88,5.62,5.82s5.49-2.83,5.44-6.13c0-2.91-1.88-5.9-5.6-5.84S112.77,202.33,112.82,205.5Z" transform="translate(-24.05 -31.59)"/><path class="cls-1" d="M147.38,205.12a8.45,8.45,0,0,0,4-.72c2.09-.91,2.9-2.38,2.32-3.72s-1.7-1.58-4.13-1.32c-2.92.34-5-.11-5.83-2-.91-2.08.46-4.51,3.53-5.85a8.86,8.86,0,0,1,3.76-.87l.05,1.65a7.14,7.14,0,0,0-3.26.67c-2.16.94-2.5,2.39-2.11,3.3.55,1.24,1.78,1.43,4.27,1.19,3-.3,4.87.2,5.72,2.15s-.1,4.63-3.83,6.26a10.1,10.1,0,0,1-4.41.9Z" transform="translate(-24.05 -31.59)"/><path class="cls-1" d="M157,188.42l-4.4,2.86-.87-1.33,10.71-7,.87,1.34-4.42,2.88L165.94,198l-1.89,1.23Z" transform="translate(-24.05 -31.59)"/><path class="cls-1" d="M174.94,181.85,170,186.37l3.54,3.86,5.51-5.06,1.06,1.16L173,192.91l-9.83-10.7,6.88-6.32,1.06,1.16-5.22,4.79,3.11,3.39,4.92-4.52Z" transform="translate(-24.05 -31.59)"/><path class="cls-1" d="M171.76,174.25a29.49,29.49,0,0,1,2.38-3.57,8,8,0,0,1,3.9-3.11,3.74,3.74,0,0,1,3.33.65,3.93,3.93,0,0,1,1.65,2.95,8,8,0,0,1-1.94,5.15,9.74,9.74,0,0,1-1.19,1.35l4.61,3.54L183.15,183Zm6.91,2.49a9.22,9.22,0,0,0,1.24-1.37c1.64-2.14,1.75-4.12.19-5.31s-3.27-.45-4.75,1.48a12.44,12.44,0,0,0-1.16,1.76Z" transform="translate(-24.05 -31.59)"/><path class="cls-1" d="M179.26,164a30.21,30.21,0,0,1,1.68-3.94,8.09,8.09,0,0,1,3.27-3.77,3.72,3.72,0,0,1,3.39,0,3.93,3.93,0,0,1,2.17,2.59,8.05,8.05,0,0,1-1,5.43,9.08,9.08,0,0,1-.92,1.54l5.19,2.63-1,2Zm7.25,1.18a8.66,8.66,0,0,0,1-1.57c1.22-2.4,1-4.37-.79-5.25s-3.3.16-4.4,2.33a10.53,10.53,0,0,0-.81,1.94Z" transform="translate(-24.05 -31.59)"/><path class="cls-1" d="M194.49,146.17l-1.9,6.4,5,1.49,2.13-7.16,1.5.45-2.77,9.32-13.92-4.13,2.66-9,1.51.45-2,6.8,4.4,1.3,1.9-6.4Z" transform="translate(-24.05 -31.59)"/><path class="cls-6" d="M185.26,125.89c0,38-30.32,68.75-67.72,68.75s-67.71-30.78-67.71-68.75,30.31-68.76,67.71-68.76S185.26,87.92,185.26,125.89Z" transform="translate(-24.05 -31.59)"/><path class="cls-7" d="M210.15,125.09a92.61,92.61,0,1,1-92.61-92.6A92.61,92.61,0,0,1,210.15,125.09Z" transform="translate(-24.05 -31.59)"/></svg>