<?xml version="1.0" encoding="utf-8"?>
<svg version="1.1" xmlns="http://www.w3.org/2000/svg" xmlns:xlink="http://www.w3.org/1999/xlink" x="0px" y="0px"
	 viewBox="0 0 184 223" style="enable-background:new 0 0 184 223;" xml:space="preserve">
<style type="text/css">
	.st0{fill:#FFFFFF;}
</style>
<g>
	<path id="country" class="st0" d="M69.02,191.83c0,2.15-1.18,3.17-3.25,3.17c-2.47,0-3.03-1.34-3.03-2.84v-5.11h1.51v5.02
		c0,0.99,0.32,1.68,1.62,1.68c1.16,0,1.65-0.49,1.65-1.82v-4.88h1.5V191.83z M78.96,194.87l-3-4.07l2.86-3.76h-1.83l-2.53,3.55
		v-3.55h-1.51v7.83h1.51v-3.76l2.52,3.76H78.96z M87.88,194.87l-1.69-2.56c-0.27-0.42-0.6-0.85-0.6-0.85c1-0.26,1.76-0.96,1.76-2.2
		c0-1.6-1.11-2.26-2.9-2.26c-1.22,0-2.3,0.05-2.3,0.05v7.83h1.51v-3.15h0.42l1.97,3.15H87.88z M83.66,188.26
		c0,0,0.36-0.03,0.68-0.03c0.96,0,1.41,0.45,1.41,1.17c0,0.77-0.53,1.19-1.46,1.19c-0.3,0-0.64-0.01-0.64-0.01V188.26z
		 M97.91,194.87l-2.63-7.83h-1.96l-2.62,7.83h1.52l0.55-1.67h2.94l0.53,1.67H97.91z M95.37,192.01h-2.26l0.81-2.46
		c0.12-0.38,0.22-0.79,0.3-1.16h0.02c0.08,0.37,0.18,0.76,0.31,1.17L95.37,192.01z M101.07,194.87h1.51v-7.83h-1.51V194.87z
		 M112.87,194.87v-7.83h-1.46v1.9c0,1.29,0.06,2.67,0.12,3.53h-0.02c-0.21-0.49-0.48-0.99-0.94-1.72l-2.3-3.71h-1.77v7.83h1.46
		v-2.13c0-1.26-0.06-2.81-0.12-3.59h0.02c0.23,0.52,0.51,1.05,0.96,1.76l2.46,3.97H112.87z M121.25,194.87v-1.3h-2.92v-2.11h2.68
		v-1.23h-2.68v-1.92h2.92v-1.26h-4.43v7.83H121.25z M65.95,208.87l-1.68-2.54c-0.26-0.41-0.6-0.84-0.6-0.84
		c0.99-0.25,1.74-0.95,1.74-2.18c0-1.58-1.1-2.24-2.87-2.24c-1.2,0-2.27,0.05-2.27,0.05v7.75h1.49v-3.12h0.41l1.95,3.12H65.95z
		 M61.77,202.33c0,0,0.36-0.04,0.68-0.04c0.95,0,1.4,0.45,1.4,1.16c0,0.76-0.53,1.18-1.45,1.18c-0.3,0-0.63-0.01-0.63-0.01V202.33z
		 M72.17,209c2.05,0,3.8-1.46,3.8-4.14c0-2.43-1.23-3.86-3.56-3.86c-2.05,0-3.8,1.46-3.8,4.14C68.61,207.58,69.84,209,72.17,209
		 M72.28,202.34c1.4,0,2.09,1.03,2.09,2.69c0,1.71-0.87,2.63-2.09,2.63c-1.39,0-2.08-1.03-2.08-2.7
		C70.21,203.26,71.07,202.34,72.28,202.34 M88.58,208.87l-0.95-7.75h-2.1l-1.35,4.02c-0.15,0.46-0.28,1.04-0.38,1.57h-0.02
		c-0.09-0.53-0.24-1.11-0.4-1.57l-1.35-4.02h-2.08L79,208.87h1.45l0.4-3.78c0.08-0.88,0.15-1.84,0.16-2.56h0.02
		c0.13,0.65,0.42,1.69,0.63,2.32l1.34,4.02h1.39l1.4-4.18c0.25-0.78,0.44-1.49,0.58-2.16h0.02c0.01,0.71,0.08,1.65,0.18,2.53
		l0.47,3.81H88.58z M98.63,208.87l-2.61-7.75h-1.94l-2.59,7.75H93l0.54-1.65h2.91l0.53,1.65H98.63z M96.12,206.04h-2.24l0.8-2.43
		c0.11-0.38,0.22-0.78,0.3-1.15h0.02c0.08,0.37,0.18,0.76,0.31,1.16L96.12,206.04z M108.08,208.87v-7.75h-1.45v1.88
		c0,1.27,0.06,2.64,0.11,3.49h-0.02c-0.21-0.48-0.47-0.98-0.93-1.7l-2.27-3.67h-1.76v7.75h1.45v-2.11c0-1.25-0.06-2.78-0.12-3.56
		h0.02c0.23,0.52,0.5,1.05,0.95,1.74l2.43,3.93H108.08z M111.98,208.87h1.49v-7.75h-1.49V208.87z M123.72,208.87l-2.61-7.75h-1.94
		l-2.59,7.75h1.5l0.54-1.65h2.91l0.53,1.65H123.72z M121.21,206.04h-2.24l0.8-2.43c0.11-0.38,0.22-0.78,0.3-1.15h0.02
		c0.08,0.37,0.18,0.76,0.31,1.16L121.21,206.04z M68.45,222.87l-0.95-7.75h-2.1l-1.35,4.02c-0.15,0.46-0.28,1.04-0.38,1.57h-0.02
		c-0.09-0.53-0.24-1.11-0.4-1.57l-1.35-4.02H59.8l-0.93,7.75h1.45l0.4-3.78c0.08-0.88,0.15-1.84,0.16-2.56h0.02
		c0.13,0.65,0.42,1.69,0.63,2.32l1.34,4.02h1.39l1.4-4.18c0.25-0.78,0.44-1.49,0.58-2.16h0.02c0.01,0.71,0.08,1.65,0.18,2.53
		l0.47,3.81H68.45z M75.05,223c2.05,0,3.8-1.46,3.8-4.14c0-2.43-1.23-3.86-3.56-3.86c-2.05,0-3.8,1.46-3.8,4.14
		C71.5,221.58,72.72,223,75.05,223 M75.17,216.34c1.4,0,2.09,1.03,2.09,2.69c0,1.71-0.87,2.63-2.09,2.63c-1.39,0-2.08-1.03-2.08-2.7
		C73.09,217.26,73.95,216.34,75.17,216.34 M86.39,222.87v-1.3h-2.51v-6.45h-1.49v7.75H86.39z M89.55,222.86
		c0.65,0.02,1.36,0.06,2.16,0.06c2.53,0,4.27-1.4,4.27-4.05c0-2.72-1.53-3.79-3.92-3.79c-0.95,0-1.89,0.03-2.5,0.06V222.86z
		 M91.04,216.37c0.24-0.02,0.56-0.03,0.91-0.03c1.77,0,2.42,0.99,2.42,2.65c0,1.84-1.06,2.66-2.51,2.66c-0.3,0-0.61-0.02-0.82-0.06
		V216.37z M102.67,223c2.05,0,3.8-1.46,3.8-4.14c0-2.43-1.23-3.86-3.56-3.86c-2.05,0-3.8,1.46-3.8,4.14
		C99.11,221.58,100.34,223,102.67,223 M102.79,216.34c1.4,0,2.09,1.03,2.09,2.69c0,1.71-0.87,2.63-2.09,2.63
		c-1.39,0-2.08-1.03-2.08-2.7C100.71,217.26,101.57,216.34,102.79,216.34 M116.13,215.13h-1.54l-1.5,4.61
		c-0.17,0.56-0.34,1.22-0.47,1.74h-0.02c-0.13-0.54-0.31-1.21-0.46-1.72l-1.49-4.64h-1.65l2.61,7.75h1.94L116.13,215.13z
		 M125.13,222.87l-2.61-7.75h-1.94l-2.59,7.75h1.5l0.54-1.65h2.91l0.53,1.65H125.13z M122.61,220.04h-2.24l0.8-2.43
		c0.11-0.38,0.22-0.78,0.3-1.15h0.02c0.08,0.37,0.18,0.76,0.31,1.16L122.61,220.04z"/>
	<rect id="line" x="58.87" y="176.76" class="st0" width="66.25" height="0.48"/>
	<path id="area" class="st0" d="M39.12,117.15c1.57-0.03,3.85-0.12,6.08-0.12c6.5,0,10.39,3.04,10.39,10.02
		c0,6.95-4.67,10.51-11.32,10.51c-2.05,0-3.64-0.12-5.15-0.12V117.15z M41.89,135.03c0.75,0.12,1.87,0.18,2.68,0.18
		c4.76,0,8.1-2.47,8.1-7.98c0-5.18-2.47-7.95-7.74-7.95c-1.05,0-2.29,0.06-3.04,0.09V135.03z M70.95,137.44l-1.66-4.85h-8.64
		l-1.69,4.85h-2.83l7.29-20.32h3.37l7.26,20.32H70.95z M65.86,122.6c-0.33-0.99-0.6-1.96-0.87-2.86h-0.03
		c-0.24,0.9-0.54,1.87-0.84,2.83l-2.77,7.83h7.29L65.86,122.6z M92.32,137.44v-20.32h-2.71v5.12c0,3.76,0.12,8.31,0.27,10.93h-0.06
		c-0.57-1.2-1.2-2.41-2.77-4.85l-7.07-11.2h-3.4v20.32h2.71v-5.69c0-3.61-0.15-8.91-0.27-11.2h0.06c0.63,1.32,1.39,2.68,2.86,5
		l7.53,11.89H92.32z M112.66,117.12h-2.71v12.77c0,4.09-1.66,5.57-5.21,5.57c-4.09,0-5.03-2.26-5.03-5.06v-13.28h-2.77v13.49
		c0,3.61,1.26,7.13,7.62,7.13c5.3,0,8.1-2.74,8.1-8.07V117.12z M117.28,117.12c0,0,2.83-0.12,5.54-0.12c4.76,0,6.89,1.96,6.89,5.03
		c0,2.11-1.23,3.91-3.37,4.67v0.03c2.47,0.48,4.06,2.14,4.06,4.7c0,2.68-1.96,6.11-7.95,6.11c-1.45,0-3.19-0.06-5.18-0.09V117.12z
		 M120.05,125.91c0.57,0.03,1.11,0.03,2.08,0.03c3.13,0,4.7-1.26,4.7-3.49c0-1.81-0.96-3.25-4.28-3.25c-0.75,0-1.72,0.06-2.5,0.09
		V125.91z M120.05,135.15c0.54,0.09,1.75,0.15,2.62,0.15c3.37,0,4.82-1.62,4.82-3.7c0-2.29-1.54-3.58-5.39-3.58
		c-0.48,0-1.57,0-2.05,0.03V135.15z M144.88,137.44v-2.32h-8.07v-7.04h7.41v-2.23h-7.41v-6.44h8.07v-2.29h-10.84v20.32H144.88z
		 M55.95,146.59c1.57-0.03,3.85-0.12,6.08-0.12c6.5,0,10.39,3.04,10.39,10.03c0,6.95-4.67,10.51-11.32,10.51
		c-2.05,0-3.64-0.12-5.15-0.12V146.59z M58.72,164.47c0.75,0.12,1.87,0.18,2.68,0.18c4.76,0,8.1-2.47,8.1-7.98
		c0-5.18-2.47-7.95-7.74-7.95c-1.05,0-2.29,0.06-3.04,0.09V164.47z M86.79,166.88v-2.32h-8.07v-7.04h7.41v-2.23h-7.41v-6.44h8.07
		v-2.29H75.96v20.32H86.79z M100.5,166.88v-2.35h-7.29v-17.97h-2.77v20.32H100.5z M113.41,148.88v-2.32H98.93v2.32h5.84v18h2.77v-18
		H113.41z M126.69,166.88l-1.66-4.85h-8.64l-1.69,4.85h-2.83l7.29-20.32h3.37l7.26,20.32H126.69z M121.6,152.04
		c-0.33-0.99-0.6-1.96-0.87-2.86h-0.03c-0.24,0.9-0.54,1.87-0.84,2.83l-2.77,7.83h7.29L121.6,152.04z"/>
	<path id="figure" class="st0" d="M141.06,56.44c-5.01-0.93-10.03-1.74-15.07-2.51c-2.29-0.35-4.59-0.69-6.89-1.03
		c-1.23-0.18-2.43-0.09-3.6-0.55c-1.51-0.59-2.84-1.54-4.37-2.08c-1.39-0.49-2.89-0.63-4.37-0.58c-2.05,0.06-4.15,0.49-5.86,1.63
		c-2.72,1.81-4.16,5.77-2.4,8.68c0.9,1.48,2.89,2.35,4.4,3.14c3.54,1.85,7.41,2.93,11.04,4.58c1.03,0.46,0.72,1.21-0.33,1.37
		c-1.05,0.16-2.11-0.16-3.1-0.44c-0.04-0.01-0.08-0.02-0.12-0.04c-2.44-0.75-5.02-1.52-7.3-2.67c-2.11-1.06-4.14-2.33-6.32-3.28
		c-2.93-1.28-6.43-2.24-8.35-5.01c-7.02-10.15,9.33-20.85,6.85-29.22c-1.23-4.17-9.67-9.39-12.86-12.39
		c-4.24-3.99-7.03-7.87-10.3-12.61c-7.57-10.97-1.59,7.44-0.12,11.58c-1.82-1.19-6.39-11-8.74-10.25c-4.7,1.51,1.36,12.27,2.8,14.6
		c-2.51-0.18-7.13-9.56-9.49-6.19c-1.87,2.66,4.32,8.77,5.96,10.52c-3.6-1.63-9.63-9.05-8.1-0.67c0.3,1.65,7.67,9.8,9.92,11.56
		c-2.44-1.27-7.3-4.3-9.13-1.87c-2.01,2.68,2.23,6.6,4.14,8.15c-4.37,1.19-7.48,3.31-2.22,6.12c-3.2,1.91,0.35,4.71,2.09,5.97
		c-2.56,1.91,4.11,13.55,6.2,15.8c-3.36,1.25-33.92,6.55-33.21,9.83c0.57,2.62,11.16,3.78,12.85,3.7c3.04-0.15,7.52-2.53,10.34-2.09
		c0.6,1.53,1.65,2.52,3.17,2.98c2.3,0.81,4.66,1.41,7.07,1.79c-5.12,4.31-4.32,11.74-10.55,13.44c-1.11,0.3-13.03,0.19-6.07,3.21
		c-3.84,0.78-1.58,2.38-0.44,3.62c2.14,2.32,4.57,2.26,8.57,0.19c5.83-3.03,6.13-8.99,10.32-13.33c2.91-3.01,5.41-2.98,9.46-4.22
		c3.47-1.05,6.09-3.17,9.79-3.76c3.6-0.57,7.29-0.48,10.85-1.33c2.37-0.57,4.59-1.56,6.75-2.66c1.97-1,3.47-1.34,5.56-1.92
		c3-0.82,5.99-1.69,8.84-2.94c0.58-0.25,1.16-0.52,1.73-0.8c1.18-0.59,2.17-1.26,3.14-2.14c0.63-0.57,0.89-1.48,0.79-2.33
		c-0.11-0.85-0.54-1.62-1.1-2.26c-1.41-1.59-3.5-2.44-5.39-3.3c-2.02-0.92-4.09-1.73-6.15-2.55c-0.31-0.12-0.62-0.24-0.92-0.37
		c-0.23-0.09-0.46-0.19-0.62-0.37c-0.31-0.36-0.13-0.65,0.28-0.64c0.44,0.02,0.86,0.2,1.25,0.39c2.5,1.19,5.16,2.13,7.91,2.4
		c0.72,0.07,1.45,0.1,2.17,0.12c2.68,0.08,6.31-0.06,8.83-0.05c2.92,0.02,5.39-0.04,8.44-0.49c2.57-0.38,5.14-0.8,7.66-1.39
		c1.12-0.26,2.24-0.54,3.32-0.96c0.55-0.21,1.42-0.5,1.71-1.08C152.22,58.61,141.75,56.57,141.06,56.44 M88.71,75.8
		c-5.88,0.85-11.85,3.09-17.81,2.61c-3.21-0.26-6.41-0.57-9.62-0.8c-2.35-0.17-4.71-0.31-7.06-0.4c-1.1-0.04-2.29-0.22-3.38-0.11
		c-1.35,0.14-2.68,0.73-4.06,0.5c-0.11-0.02-0.21-0.04-0.32-0.07c-0.23-0.06-0.51-0.25-0.43-0.48c0.04-0.11,0.16-0.17,0.27-0.22
		c0.42-0.18,0.86-0.31,1.3-0.43c4.99-1.43,9.99-2.86,14.98-4.29c2.02-0.58,4.05-1.16,6.02-1.88c0.79-0.29,2.06-0.52,2.67-1.13
		c0.39-0.39,0.54-0.53,0.56-0.63c0.02-0.14-0.22-0.2-0.43-0.77c-0.75-2.08-1.73-4.02-2.34-6.17c-1.17-4.19-1.7-8.52-2.23-12.83
		c-0.25-2.05-0.5-4.1-0.49-6.17c0.03-5.33,1.85-10.64,5.11-14.85c1.08-1.4,2.35-2.71,3.89-3.57c1.55-0.86,3.42-1.25,5.13-0.78
		c1.41,0.39,2.6,1.32,3.74,2.23c1.69,1.34,4.58,2.89,5.79,4.65c1.11,1.61,0.44,3.82-0.54,5.51c-2.33,4.01-5.15,7.02-6.56,11.54
		c-1.47,4.75-1.63,9.49,1.27,13.76c2.99,4.41,5.9,5.18,10.72,6.23c2.49,0.54,11.4,0.97,11.5,5.17
		C100.9,74.99,94.62,74.94,88.71,75.8"/>
</g>
</svg>
