<?xml version="1.0" encoding="utf-8"?><svg version="1.1" xmlns="http://www.w3.org/2000/svg" xmlns:xlink="http://www.w3.org/1999/xlink" viewBox="0 0 216.31 121.37"><defs><style>.cls-1,.cls-4{fill:#1d1d1b;}.cls-1,.cls-3,.cls-6,.cls-7{stroke:#1d1d1b;stroke-miterlimit:10;}.cls-1{stroke-width:0.4px;}.cls-2,.cls-3{fill:#fff;}.cls-3{stroke-width:0.25px;}.cls-5{fill:#d5d2d2;}.cls-6,.cls-7{fill:none;}.cls-6{stroke-width:1.03px;}.cls-7{stroke-width:2.14px;}</style></defs><title>Logo Tarutino halfround</title><path class="cls-1" d="M113.09,112.56a19.31,19.31,0,0,0,0-2.94c-.19-1.34-1.14-4.08-1.19-5.42a22.59,22.59,0,0,1,1.15-6.14c.49-1.26,2.08-3.55,2.38-4.86a6.9,6.9,0,0,0,0-2.79c-.16-.5-.85-1.37-1-1.88a19.88,19.88,0,0,1-.1-3.38,11.22,11.22,0,0,1,1.59.5,11.17,11.17,0,0,1,1.29,1,48.56,48.56,0,0,1-.06-6.81c.2-1.27,1.24-4.11,1.43-5.49a35.73,35.73,0,0,0,.41-3.55c0-1.05-.41-3.16-.41-4.2,0-.5.12-2.39.12-2.39s.89,2.46,1.17,3.27a45.81,45.81,0,0,1,1.29,4.58,20.31,20.31,0,0,1,0,4.27c-.18,1.69-1,4.45-.88,6a13.18,13.18,0,0,0,1,4.18c.18.31.8,1.19.8,1.19s1.48-2,1.88-2.78a23.54,23.54,0,0,0,2.19-5.06,33.19,33.19,0,0,0,0-4.57V64.7s1,2.35,1.23,3c.36,1.21.08,3.09.26,4.34s1.21,3.62,1.39,4.87a25.34,25.34,0,0,1,0,4.77c-.11.88-.64,2.59-.8,3.47-.1.62-.55,1.91-.3,2.48a2.26,2.26,0,0,0,1.1.75,1.33,1.33,0,0,0,.79,0c.67-.4,1.14-2.11,1.79-2.53,2.65-1.73,4.37-1.1,4.37-1.1.26,2.09.21,3.66-3.15,5.13-.47.21,1.16.52,1.56.43,1.19-.26,3.11-1.93,4.07-2.68,1.17-.92,3.32-3,4.37-4.07.85-.86,2.37-2.76,3.28-3.57a23.64,23.64,0,0,1,3.77-2.78,14.45,14.45,0,0,1,3.57-1.09c1.46-.2,4.4.23,5.86.19a65.5,65.5,0,0,0,6.56-.59c2.14-.35,6.29-1.71,8.44-2a69,69,0,0,1,9.43-.3c2.51.13,7.59,1,9.83,2.19,1.33.68,3.42,2.91,4.47,4,1.25,1.26,3.32,4.2,4.67,5.36.38.33,1.34.73,1.68,1.09a11.36,11.36,0,0,1,2,4.07c.58,2.5-.74,7.78,0,10.23.08.26.75.68.6.9s-1.32-.18-1.69-.4a9.35,9.35,0,0,1-2.29-2.48,9.64,9.64,0,0,1-.49-1.4s-3.48,4-4.08,5.67c-.44,1.24-.9,4-.39,5.26.34.81,2,1.74,2.68,2.29a38,38,0,0,0,3.27,2.39c.74.44,2.29,1.06,3,1.58a3.46,3.46,0,0,1,1,1,8.25,8.25,0,0,1,0,2.38c0,.55,0,1.64,0,2.19-.11,1.74-.81,5.2-.89,7s.25,5.14.19,6.85a15.63,15.63,0,0,1-.39,4.17,7,7,0,0,1-1.09,1.29,1.76,1.76,0,0,0-.4.5,6,6,0,0,0,.1,1.39,2.37,2.37,0,0,1-.1.89A7.77,7.77,0,0,1,203,143l-2.58.6-.19-.9-1.4.2-.09-1a16.1,16.1,0,0,1,.89-2.38c.47-.77,1.85-2,2.28-2.79a12.11,12.11,0,0,0,.8-2.38,72.12,72.12,0,0,0,1-7.55c0-.59.32-4.55-.2-5.95a10.39,10.39,0,0,0-2.18-2.78,48.3,48.3,0,0,0-6.56-4.47c-.89-.53-2.75-1.45-3.57-2.09a9.26,9.26,0,0,1-.7-.69s.35,1.65.5,2.18a4.74,4.74,0,0,0,.5,1.5c.18.2.84.26,1,.49a3.25,3.25,0,0,1,.1,1.59,4.08,4.08,0,0,1-.3,1.19,28.86,28.86,0,0,1-2.38,2.58,68.78,68.78,0,0,0-3.78,5.76c-.72,1.23-2.68,5.07-2.68,5.07a16.22,16.22,0,0,0-1.29,2.58c-.08.36.07,1.12,0,1.49a2.15,2.15,0,0,1-.29.79,2.32,2.32,0,0,1-.7.4,9.89,9.89,0,0,1-1.49.19l-.2,1a4.22,4.22,0,0,1-.2,1.09,2.72,2.72,0,0,1-.59.5l-2,.69-2.38.9-.6-.4h-1.29a18.63,18.63,0,0,1,.8-2.38,40,40,0,0,1,3.07-4.07s4.77-6.43,6.26-8.65a31.12,31.12,0,0,0,3.57-6.74,17,17,0,0,0,.1-3.78,10.59,10.59,0,0,0-.29-2.18,22.66,22.66,0,0,0-1.39-2.79,18.72,18.72,0,0,0-1.79-2.77,14.35,14.35,0,0,0-1.49-1.19l-6.46.59s-3.49.55-4.66.6c-1.54.06-4.63-.21-6.16,0a40.41,40.41,0,0,0-4,1.09A35.59,35.59,0,0,0,160,113c.19,1,1.1,3,1.33,4,.26,1.18.42,3.58.6,4.77.21,1.5.74,4.49,1.09,6,.23,1,.82,2.9,1.09,3.87a13.62,13.62,0,0,1,.4,1.79c0,.52-.1,2.08-.1,2.08l-1.1.7a6.59,6.59,0,0,0-1.19.89,3.35,3.35,0,0,0-.4,1.59,2.11,2.11,0,0,0,.21.5l-.7,1.09-1.23.1-3.14.1-.1-.6h-.89a20.5,20.5,0,0,1,.79-2.38,11.27,11.27,0,0,1,1.19-1.49,13.26,13.26,0,0,0,1.59-1.59,9.93,9.93,0,0,0,.56-3.57,33.09,33.09,0,0,0-.86-5.66,25.51,25.51,0,0,0-1.39-4.17c-.33-.72-1.24-2-1.48-2.78a28.45,28.45,0,0,1-.6-3.87s-3.48,5.13-4.47,6.94a71.62,71.62,0,0,0-3.18,7.36c-.44,1.21-1.49,5-1.49,5a20,20,0,0,1-.39,3.08,4.52,4.52,0,0,1-.8,1.19,10.34,10.34,0,0,0-1.09,1,2.62,2.62,0,0,0-.3,1.1,10.71,10.71,0,0,0,.4,1.68l-.1.5a37.34,37.34,0,0,1-4.57,1.59,11.92,11.92,0,0,1-1.49,0l-.3-1.19-.69.19.6-2.48s2.64-2.89,3.37-4a37.46,37.46,0,0,0,2.88-5.86,43.87,43.87,0,0,0,1.49-5.76c.21-1.11.5-4.47.5-4.47a22.1,22.1,0,0,1,.4-2.18c.46-1.48,2.58-5.66,2.58-5.66a19.59,19.59,0,0,0,1.09-2.68,6.46,6.46,0,0,0,0-1l-2.68-.79-3.38-1.19-2.68-1.19a11.51,11.51,0,0,0-1.89,0c-.8.16-2.28,1-3.07,1.19-.47.12-1.89.3-1.89.3a11.69,11.69,0,0,1-3.08.1,9.1,9.1,0,0,1-1.88-1.49l-1.6-.8a.8.8,0,0,0-.89,0c-.5.3-1.66,1.34-2.28,1.69a9.16,9.16,0,0,0-1.89,1,13.36,13.36,0,0,0-.88,2.09c-.26.47-1.21,1.78-1.21,1.78a4.79,4.79,0,0,1-.69.7c-.29.17-1,.26-1.29.4s-1,.59-1,.59l-1.79.1a9.08,9.08,0,0,1-1.79.1A7.18,7.18,0,0,1,113.09,112.56Z" transform="translate(-39.21 -25.92)"/><path class="cls-2" d="M164.41,99.36s-1.27,3-1.62,3.64-.94,1.5-1.26,2l-.69,1s1.55-.29,2.06-.42a12.62,12.62,0,0,1,2.2-.36,21.07,21.07,0,0,1,3.37.36A38.68,38.68,0,0,0,173,105c1-.13,2.92-.44,3.9-.53.78-.06,3.15-.1,3.15-.1h1.05l-.45-.68a3.61,3.61,0,0,0-1-1.5,4.59,4.59,0,0,0-2.1-.18c-.52.06-1.53.26-2,.38a14.5,14.5,0,0,1-3.26.3c-1.34-.1-4-.73-5.28-1a3.82,3.82,0,0,1-1.53-.8A9,9,0,0,1,164.41,99.36Z" transform="translate(-39.21 -25.92)"/><path class="cls-3" d="M123.78,96.47c.16.16.69,0,.91,0a5.29,5.29,0,0,0,.82-.42c.19-.1.64-.22.75-.41a1.93,1.93,0,0,0,0-1.49,1.89,1.89,0,0,0-1.24-.41,2.06,2.06,0,0,0-1.24.58c-.14.23,0,.81,0,1.07S123.59,96.28,123.78,96.47Z" transform="translate(-39.21 -25.92)"/><path class="cls-2" d="M130.27,99.55c-.39.65-2,3.84-2,3.84a5.08,5.08,0,0,1,2.6.54,3.44,3.44,0,0,0,2.88.94,11.73,11.73,0,0,0,3.15-.73,28.86,28.86,0,0,1,2.93-.21,17.82,17.82,0,0,0-3.49-2.41c-.77-.22-2.43.09-3.2-.15A17,17,0,0,1,130.27,99.55Z" transform="translate(-39.21 -25.92)"/><path class="cls-4" d="M101.08,139.56a9,9,0,0,0,.29,1,5.52,5.52,0,0,0,.79,1.29,3.3,3.3,0,0,0,1.08.74,2.92,2.92,0,0,0,1.61-.12,4.11,4.11,0,0,0,1.29-1.68,10.67,10.67,0,0,0,.21-1.61s0-.8-.07-1a7.51,7.51,0,0,1,.28-1.42c.08-.25.37-.95.37-.95a10,10,0,0,0-1,1.31,9.33,9.33,0,0,0-.42,1.82c0,.27-.2,1-.2,1s.3-2.62.46-3.49.72-3,.91-3.95a38.68,38.68,0,0,0,.66-6.15c0-.89-.56-2.64-.52-3.53a12.51,12.51,0,0,1,.61-2.1,8.85,8.85,0,0,0,.32-1.53c0-.34-.1-1-.09-1.35s-.09-.87-.09-1.23c0-1.24-.11-2.64-.11-2.64a19.56,19.56,0,0,0-.3,3.69c0,.52-.24,1.91-.23,2.07a14.67,14.67,0,0,1-.39,1.49l-.12.55a13.8,13.8,0,0,0-.9-2.1,5.21,5.21,0,0,0-.87-.75c-.37-.28-1.21-.68-1.57-1s-.84-1-1.17-1.22a11.48,11.48,0,0,0-1.62-.8l1.55,1.29-1.42-.11c-.58,0-1.75-.17-2.33-.17a12.57,12.57,0,0,0-1.43.23s2.91.16,3.84.31c.2,0,.79.16.79.16a4.4,4.4,0,0,1,1,.2,8.07,8.07,0,0,1,1.56,1.68c.23.27.63.86.84,1.14l.66.91a4.83,4.83,0,0,1,.75,1.57c.09.83-.59,2.42-.74,3.24s-.39,2.41-.48,3.22c-.05.48-.14,1.9-.14,1.9l-.14,2.55s.09,2.19.2,2.91a12.11,12.11,0,0,1,.14,2,12.28,12.28,0,0,1-.33,1.48,3.48,3.48,0,0,1-.31-.58,14,14,0,0,1,.11-3c.08-1.71-.21-6.85-.21-6.85l.09-4.88.22-3.89-.85,6.43s-.63-1.11-.8-1.51a28.87,28.87,0,0,1-1.1-4c-.14-.74-.32-3-.32-3l.06-.76s-.35,2-.35,2.73a33.54,33.54,0,0,0,.76,4.75c.19.9.9,3.56.9,3.56l.46,2.61s.28,3,.29,4c0,.47-.1,1.85-.1,1.85s-1.37-2.35-1.74-3.18c-.16-.37-.41-1.14-.55-1.53s-.3-.81-.39-1.08-.32-1.09-.4-1.48c-.12-.68-.19-2.49-.86-2.67-.29-.08-.73.57-.86.84-.29.63-.89,2.64-.89,2.64A14.16,14.16,0,0,0,99,129c0-.1.34-.09.43,0,.28.19.36.94.41,1.27a27.79,27.79,0,0,0,1.33,4.69c.36.92,1.29,2.67,1.6,3.61.17.51.47,2.08.47,2.08a4.39,4.39,0,0,1-1.23-1.31c-.22-.43-.44-1.17-.65-1.64s-.88-1.78-.88-1.78a16.63,16.63,0,0,0,.29,1.87c.12.38.35,1.21.52,1.57s.88,1.42.88,1.42Z" transform="translate(-39.21 -25.92)"/><path class="cls-4" d="M103.89,142.74a3.13,3.13,0,0,1-.67-.06,3.22,3.22,0,0,1-1.12-.76,5.59,5.59,0,0,1-.81-1.32c-.1-.24-.28-1-.29-1l-.07-.31.68.72c-.16-.25-.3-.49-.38-.65a10.46,10.46,0,0,1-.42-1.24l-.1-.33a15.28,15.28,0,0,1-.29-1.89l0-.45.21.41s.68,1.32.88,1.77c.09.22.19.49.29.75s.24.66.35.89a4,4,0,0,0,1,1.15c-.09-.45-.3-1.47-.43-1.85a20,20,0,0,0-.92-2.1c-.27-.57-.52-1.12-.68-1.51a26.74,26.74,0,0,1-1.33-4.71v-.1c0-.31-.15-1-.37-1.11a.42.42,0,0,0-.17,0,.38.38,0,0,0-.13,0,14.13,14.13,0,0,1-1.28,2.41l-.29.4.15-.48c0-.08.6-2,.9-2.64.11-.24.53-.9.88-.9h.07c.59.16.74,1.35.85,2.22,0,.2.05.38.08.51a13.18,13.18,0,0,0,.4,1.47c0,.15.13.39.22.62l.16.46.11.31c.13.39.31.93.44,1.22.3.65,1.24,2.31,1.59,2.93,0-.43.08-1.24.08-1.56,0-1-.28-4-.28-4l-.46-2.61s-.72-2.66-.9-3.55l0-.27a29.46,29.46,0,0,1-.71-4.5,23.68,23.68,0,0,1,.35-2.75l.17,0-.06.77s.18,2.25.32,3a26.3,26.3,0,0,0,1.09,4c.12.28.48.94.67,1.28l.82-6.18h.17l-.22,3.9-.09,4.87c0,.05.29,5.16.21,6.85,0,.22,0,.51-.07.81a8.28,8.28,0,0,0,0,2.2,2.42,2.42,0,0,0,.2.39,9.11,9.11,0,0,0,.28-1.27,13.76,13.76,0,0,0-.14-2c-.11-.72-.21-2.83-.21-2.92l.15-2.55s.08-1.44.14-1.91c.09-.84.32-2.44.47-3.22.06-.29.18-.68.3-1.09a6.41,6.41,0,0,0,.45-2.13,4.9,4.9,0,0,0-.74-1.53l-.48-.66-.18-.25-.24-.33c-.2-.28-.44-.62-.59-.81l-.22-.27a6.52,6.52,0,0,0-1.33-1.38,4,4,0,0,0-.94-.2l-.79-.16c-.92-.15-3.81-.3-3.84-.3l-.65,0,.64-.13a12.36,12.36,0,0,1,1.45-.23c.44,0,1.2.06,1.81.12l.53,0,1.14.1-1.77-1.49.52.22a11.35,11.35,0,0,1,1.64.81,6.44,6.44,0,0,1,.62.64,4.53,4.53,0,0,0,.55.58,7.52,7.52,0,0,0,.84.52,8.38,8.38,0,0,1,.73.45,3.92,3.92,0,0,1,.88.77,10.41,10.41,0,0,1,.82,1.84c0-.11,0-.21.06-.26s.08-.28.13-.46a8.22,8.22,0,0,0,.25-1c0-.08,0-.31.08-.71s.15-1.07.16-1.37a18.67,18.67,0,0,1,.3-3.71l.13-.53,0,.54s.1,1.42.11,2.65c0,.17,0,.4,0,.62a4.91,4.91,0,0,1,0,.62c0,.14,0,.36,0,.59a5.51,5.51,0,0,1,0,.75,9.42,9.42,0,0,1-.33,1.56c0,.16-.12.36-.2.58a7.37,7.37,0,0,0-.41,1.49,9.67,9.67,0,0,0,.27,1.9,11.47,11.47,0,0,1,.25,1.63,39.65,39.65,0,0,1-.65,6.16c-.09.46-.25,1.12-.42,1.81s-.4,1.61-.5,2.15c0,.25-.1.67-.16,1.12a2.68,2.68,0,0,1,.16-.48,10.66,10.66,0,0,1,1-1.33l.35-.4-.21.49s-.29.7-.36.93a7.24,7.24,0,0,0-.27,1.39c0,.22.07,1,.07,1a10.5,10.5,0,0,1-.22,1.64,4.4,4.4,0,0,1-1.32,1.73A2.28,2.28,0,0,1,103.89,142.74Zm-2.65-2.89a4.49,4.49,0,0,0,1,2,3.2,3.2,0,0,0,1,.72,3.56,3.56,0,0,0,.63,0,2,2,0,0,0,.92-.16,4,4,0,0,0,1.25-1.64,9.81,9.81,0,0,0,.21-1.58s-.06-.8-.07-1a7,7,0,0,1,.28-1.46c0-.1.1-.28.17-.45a6.24,6.24,0,0,0-.64.88,9.09,9.09,0,0,0-.4,1.79c0,.27-.2,1-.21,1l-.16,0s.3-2.63.46-3.49c.1-.54.3-1.37.49-2.16s.33-1.34.42-1.8a38.1,38.1,0,0,0,.65-6.13,10,10,0,0,0-.25-1.59,10,10,0,0,1-.27-1.94,7,7,0,0,1,.42-1.54c.08-.22.15-.42.2-.58a9.83,9.83,0,0,0,.32-1.52,5.21,5.21,0,0,0-.05-.72c0-.24,0-.46,0-.62a3.29,3.29,0,0,0,0-.59c0-.23,0-.46,0-.64,0-.66,0-1.36-.07-1.88a26.45,26.45,0,0,0-.17,2.93c0,.31-.09.91-.16,1.39,0,.31-.08.62-.08.67a5.75,5.75,0,0,1-.26,1.07c-.05.17-.1.34-.12.45s-.12.54-.12.54l-.07.3-.1-.29a13.25,13.25,0,0,0-.89-2.07,4.9,4.9,0,0,0-.85-.74,8.12,8.12,0,0,0-.71-.43A5.79,5.79,0,0,1,103,118a5.72,5.72,0,0,1-.57-.6,5.87,5.87,0,0,0-.59-.61,7.81,7.81,0,0,0-1.07-.56l1.31,1.09-.27,0-1.41-.12-.54,0c-.6-.06-1.35-.12-1.79-.12a6,6,0,0,0-.75.1c.92.05,2.53.16,3.18.27l.79.16a3.64,3.64,0,0,1,1,.21,6.43,6.43,0,0,1,1.37,1.42l.22.27c.16.19.39.53.6.82l.24.33.18.25.48.67a5.27,5.27,0,0,1,.77,1.6,6.67,6.67,0,0,1-.45,2.2,9.73,9.73,0,0,0-.3,1.07c-.15.77-.39,2.39-.48,3.21,0,.47-.13,1.88-.13,1.9l-.15,2.55s.1,2.18.2,2.88a11.69,11.69,0,0,1,.15,2,12,12,0,0,1-.34,1.49l-.05.18-.1-.16a2.9,2.9,0,0,1-.32-.6,8.26,8.26,0,0,1,0-2.26c0-.3.06-.58.07-.8.08-1.68-.21-6.78-.21-6.83l.09-4.89.09-1.64-.59,4.45-.12-.22c0-.05-.64-1.13-.8-1.52a27.17,27.17,0,0,1-1.11-4c-.1-.55-.23-1.88-.28-2.58a10.47,10.47,0,0,0-.16,1.52,29.15,29.15,0,0,0,.7,4.48l.06.26c.18.89.89,3.53.89,3.56l.47,2.62s.27,3,.28,4c0,.46-.09,1.8-.1,1.86l0,.27-.14-.24s-1.37-2.36-1.73-3.18c-.14-.3-.32-.84-.45-1.24l-.11-.3-.16-.46c-.09-.23-.18-.47-.23-.63-.11-.36-.32-1.09-.4-1.49,0-.14-.05-.31-.07-.52-.1-.78-.25-2-.73-2.08h0c-.22,0-.6.52-.73.8a20.61,20.61,0,0,0-.7,2,18.47,18.47,0,0,0,.91-1.84c0-.11.21-.12.29-.12a.49.49,0,0,1,.27.06c.28.19.38.84.43,1.22l0,.1a26.4,26.4,0,0,0,1.32,4.68c.15.39.41.93.68,1.5a22.79,22.79,0,0,1,.92,2.12c.17.5.47,2,.48,2.08l0,.2-.17-.11a4.47,4.47,0,0,1-1.27-1.34c-.12-.25-.24-.58-.36-.91s-.19-.53-.28-.74-.45-.92-.67-1.35a11.46,11.46,0,0,0,.23,1.39,3.4,3.4,0,0,1,.1.33,12.11,12.11,0,0,0,.42,1.22c.18.38.86,1.4.87,1.41l-.13.11Z" transform="translate(-39.21 -25.92)"/><path class="cls-4" d="M104.43,122.44l-.05-.36c0-.89.1-.78,0-1.24,0-.08,0-.09.06-.37s0-.5.08-.71a3.17,3.17,0,0,0,.06-.35,4.89,4.89,0,0,0-.14-1.46,3.82,3.82,0,0,1-.09-.44c-.06-.37-.11-.73-.15-1.07a8.66,8.66,0,0,0-.64-2.7,5.89,5.89,0,0,0-1.43-2,4.68,4.68,0,0,0-1.63-.76l-.47-.16a9.49,9.49,0,0,0-5.16-.27A23.71,23.71,0,0,0,90,112.36a9.61,9.61,0,0,1-5.42.51,20.82,20.82,0,0,1-2.79-.4,4.43,4.43,0,0,1-2.13-1.06c-.12-.15-.36-.1-.54-.14a6.45,6.45,0,0,0-2,0,4.65,4.65,0,0,0-1.87.54l-.28.09c-.84.37-1.59.56-2.1,1.46-.4.72-.1,1.46.26,2.34s.64,1.48,1.56,1.72a4,4,0,0,0,2.4-.2l.11.13a4.14,4.14,0,0,1-2.55.23,2.4,2.4,0,0,1-1.7-1.72,2.92,2.92,0,0,1-.22-2.58,3.76,3.76,0,0,1,2.15-1.6h.32a3.84,3.84,0,0,1,1.65-.55,8.25,8.25,0,0,1,2.27,0,2,2,0,0,1,.54.14,11,11,0,0,0,2.15,1.06,18.74,18.74,0,0,0,2.76.4,9.36,9.36,0,0,0,5.32-.49,22.78,22.78,0,0,1,5-1.84,9.62,9.62,0,0,1,5.25.27l.47.16a4.59,4.59,0,0,1,1.69.79,6.11,6.11,0,0,1,1.47,2.08,8.71,8.71,0,0,1,.66,2.75c0,.34.08.7.15,1.06,0,.14,0,.29.08.44a4.6,4.6,0,0,1,.15,1.52,3.29,3.29,0,0,1-.07.36,2,2,0,0,0-.07.66,1.83,1.83,0,0,0,0,.21C104.71,120.94,104.67,122.26,104.43,122.44Z" transform="translate(-39.21 -25.92)"/><path class="cls-4" d="M100.94,116.53c-.31-.09-.79-.59-1.08-.7a5.68,5.68,0,0,0-1.4-.43,10.78,10.78,0,0,0-2.48-.11l-.2,0a13.4,13.4,0,0,1-5.13-.1,14.85,14.85,0,0,1-3.61-2l-.8-.54c-.62-.4-1.22-.84-1.8-1.27a24.54,24.54,0,0,0-2.57-1.73,6.8,6.8,0,0,0-2.51-.93,8.46,8.46,0,0,0-1.73.13c-.31,0-.63.09-.94.11l-.41,0c-.74,0-1.24.84-2.06.41-.67-.35-.88,1.65-1,2.55s-.22,1.24.3,1.74a2.66,2.66,0,0,0,2.33.62l0,.17a2.86,2.86,0,0,1-2.48-.67c-.56-.54-.61-1.07-.49-2,.09-.77.46-2.52,1.21-2.53s1.38-.38,2.13-.43l.41,0c.31,0,.61-.06.93-.11a8.85,8.85,0,0,1,1.77-.13,6.93,6.93,0,0,1,2.59,1,23.28,23.28,0,0,1,2.58,1.74c.58.42,1.18.86,1.79,1.26l.81.54a15,15,0,0,0,3.56,2,13.24,13.24,0,0,0,5.06.09l.21,0a10.37,10.37,0,0,1,2.5.1,6.12,6.12,0,0,1,1.45.44c.29.11,1.11.62,1.41.71Z" transform="translate(-39.21 -25.92)"/><path class="cls-4" d="M88,120.69a9.71,9.71,0,0,1-2.68-.51l-.77-.21-.83-.24a13.73,13.73,0,0,0-1.85-.43c-.35,0-1.77,0-2.06.42a.22.22,0,0,0,0,.25l-.16.07a.4.4,0,0,1,0-.42c.35-.48,1.87-.53,2.22-.49a13.36,13.36,0,0,1,1.87.44l.84.23.77.22c1.32.38,2.81.81,4.1.19.47-.23.93-.48,1.36-.72a16.13,16.13,0,0,1,2.63-1.23c.27-.09.48-.31.76-.38.49-.13.58-.37,1-.59.08,0,.44-.16.48-.18a6,6,0,0,1,1-.18c.16,0,.7,0,.87,0s.7.21.89.13l-.49,0a2.35,2.35,0,0,1-.71.13l-.48.07c-.28.06-.58-.06-.83.06-.07,0-.45.16-.53.2a4,4,0,0,0-1.09.65c-.21.18-.55.15-.81.23a15.05,15.05,0,0,0-2.6,1.22c-.44.24-.9.49-1.37.72A3.55,3.55,0,0,1,88,120.69Z" transform="translate(-39.21 -25.92)"/><path class="cls-4" d="M103.36,113.16a9.13,9.13,0,0,0-2.79-2.94l-.14-.09a7.35,7.35,0,0,0-4.7-1.56,20.41,20.41,0,0,0-2.16.31l-.5.09a12.09,12.09,0,0,1-1.69.11l-1,0a13,13,0,0,1-5.1-.64c-.56-.18-1.13-.33-1.68-.48l-.75-.21-.28-.08a8.15,8.15,0,0,0-1-.24l-.34,0a2.13,2.13,0,0,1-.84-.17l.11-.13a3,3,0,0,0,.75.13l.35,0a6.87,6.87,0,0,1,1,.25l.29.08.74.2c.56.15,1.13.31,1.69.49a12.92,12.92,0,0,0,5,.63l1,0A11.57,11.57,0,0,0,93,108.8l.5-.09c.7-.12,1.42-.25,2.18-.31a7.64,7.64,0,0,1,4.81,1.59l.13.09c1.4.93,3,2,3.15,3.86Z" transform="translate(-39.21 -25.92)"/><path class="cls-4" d="M101.35,119.11a3.81,3.81,0,0,1,.3-1.76c.06-.14.12-.27.17-.4a3.77,3.77,0,0,0,.15-1.16c0-.17,0-.34,0-.51a5.62,5.62,0,0,1,.73-2.52,9,9,0,0,1,.66-.92,6.31,6.31,0,0,0,.81-1.22,5.79,5.79,0,0,0,.61-2.49,3.53,3.53,0,0,0-.28-.95c-.21-.54-.42-1.09-.25-1.44l.15.08c-.14.28.06.8.26,1.3a3.77,3.77,0,0,1,.29,1,6.09,6.09,0,0,1-.62,2.58,6.71,6.71,0,0,1-.83,1.24,8.35,8.35,0,0,0-.65.91,5.39,5.39,0,0,0-.71,2.44c0,.17,0,.34,0,.5A3.8,3.8,0,0,1,102,117c0,.14-.11.28-.17.41a4.16,4.16,0,0,0-.27,1.8Z" transform="translate(-39.21 -25.92)"/><path class="cls-5" d="M79.44,120.59a2.77,2.77,0,0,0,.65,0c.39-.14.15-.21.35-.41a2.46,2.46,0,0,1,1-.5,1.27,1.27,0,0,1,1.17.24c.46.35.67.27,1.21.41.21,0,.33.18.55.24s.48-.06.69,0,.27.27.47.33a5.58,5.58,0,0,0,.71,0,7.07,7.07,0,0,0,2.55.26,7.76,7.76,0,0,0,2.44-1.36c.75-.57,3.84-1.71,3.06-1.81-.45,0-1.4.63-1.89.75a5.55,5.55,0,0,0-1,.45,8.34,8.34,0,0,1-2.25,1.08c-.35.07-.88.36-1.22.3-.16,0-.34-.24-.51-.29a4.66,4.66,0,0,0-.65,0c-.4,0-.85-.24-1.26-.33a3.06,3.06,0,0,1-.66-.12c-.22-.09-.35-.35-.53-.44-.47-.22-1,0-1.56-.06a7,7,0,0,0-1.59-.32,3,3,0,0,0-1.43.43c-.32.16-1.1.88-.46,1.16" transform="translate(-39.21 -25.92)"/><path class="cls-4" d="M88.3,121.28a6.29,6.29,0,0,1-1.36-.2,6.53,6.53,0,0,0-.68-.12.93.93,0,0,0-.29,0,1.18,1.18,0,0,1-.42,0,1,1,0,0,1-.33-.22.92.92,0,0,0-.14-.11,1.07,1.07,0,0,0-.31,0,1,1,0,0,1-.38,0,1.18,1.18,0,0,1-.3-.13,1.12,1.12,0,0,0-.25-.11l-.41-.08a1.66,1.66,0,0,1-.83-.34,1.16,1.16,0,0,0-1.09-.23,2.43,2.43,0,0,0-1,.48.18.18,0,0,0-.07.14c0,.13-.07.2-.31.29a1.2,1.2,0,0,1-.47,0h-.2v-.17a1.46,1.46,0,0,1,.21,0,1.3,1.3,0,0,0,.41,0c.19-.07.19-.1.2-.15a.38.38,0,0,1,.12-.24,2.41,2.41,0,0,1,1.09-.52,1.34,1.34,0,0,1,1.23.25,1.5,1.5,0,0,0,.76.31,3.62,3.62,0,0,1,.42.09.77.77,0,0,1,.29.12,1,1,0,0,0,.26.12,1.14,1.14,0,0,0,.32,0,.92.92,0,0,1,.37,0,.64.64,0,0,1,.21.14.75.75,0,0,0,.26.19,1.12,1.12,0,0,0,.37,0,1.22,1.22,0,0,1,.33,0,6.7,6.7,0,0,1,.68.13,4.34,4.34,0,0,0,1.84.13,7.64,7.64,0,0,0,2.41-1.35,11.14,11.14,0,0,1,1.67-.87,9.57,9.57,0,0,0,1.46-.78h0a4.36,4.36,0,0,0-1,.39,4.8,4.8,0,0,1-.85.35,4.9,4.9,0,0,0-.88.4l-.1,0c-.24.12-.45.25-.66.38a5.08,5.08,0,0,1-1.6.7,3.15,3.15,0,0,0-.41.13,1.89,1.89,0,0,1-.85.18.79.79,0,0,1-.29-.17,1,1,0,0,0-.22-.13.9.9,0,0,0-.33,0c-.1,0-.2,0-.31,0a4.6,4.6,0,0,1-.77-.2l-.5-.14a1,1,0,0,0-.25,0,1.38,1.38,0,0,1-.43-.09,1.18,1.18,0,0,1-.32-.26.67.67,0,0,0-.21-.18,1.66,1.66,0,0,0-.87-.07,2.91,2.91,0,0,1-.66,0,3.52,3.52,0,0,1-.62-.15,2.72,2.72,0,0,0-.9-.17h-.06a2.61,2.61,0,0,0-1.26.37l-.13.06c-.23.11-.66.51-.66.77,0,.1.07.18.2.23l-.07.16a.43.43,0,0,1-.3-.38c0-.37.5-.81.76-.93l.12-.06a2.73,2.73,0,0,1,1.34-.39h.06a2.92,2.92,0,0,1,1,.18c.19,0,.38.11.59.15a3.24,3.24,0,0,0,.62,0,1.77,1.77,0,0,1,1,.09,1,1,0,0,1,.25.21.9.9,0,0,0,.27.22,1,1,0,0,0,.37.08l.27,0,.52.15a4.48,4.48,0,0,0,.74.19h.27a1.08,1.08,0,0,1,.4,0,.77.77,0,0,1,.27.16.66.66,0,0,0,.22.13,1.79,1.79,0,0,0,.76-.17,3.53,3.53,0,0,1,.43-.14,4.56,4.56,0,0,0,1.55-.68,7.16,7.16,0,0,1,.68-.38l.09-.06a4.93,4.93,0,0,1,.92-.4,5.16,5.16,0,0,0,.82-.34,4,4,0,0,1,1.08-.41c.07,0,.2,0,.22.13s-.31.37-1.58,1a13,13,0,0,0-1.64.85,7.79,7.79,0,0,1-2.47,1.38A2,2,0,0,1,88.3,121.28Z" transform="translate(-39.21 -25.92)"/><path class="cls-5" d="M76.53,113.73c0,.46.11.81-.18,1.13s-.8.22-1.25,0c-.75-.33-1.72-.4-2.14-1.19a3.2,3.2,0,0,1,0-2.43c.32-.68.35-1.93,1.25-2,.21,0,.38.09.6.06s.32-.2.57-.31c.45-.19.8-.13,1.21-.41a1.34,1.34,0,0,1,1.18-.3,8,8,0,0,0,1.21.35c.21,0,.43-.07.64,0a6.56,6.56,0,0,1,.67.21c.21,0,.44-.07.64,0s.38.19.61.23a1.76,1.76,0,0,1,1.21.46c.28.25.47.66.76.86s.87-.06,1.21.24.27.66.67.93.76.34,1.11.57.7.42,1,.69c.74.58,1.13,1.3,2,1.65a7.1,7.1,0,0,0,2.3.91c.36,0,.72,0,1.08,0s1.23-.22,1.66,0a11.08,11.08,0,0,1-3.32.29A3.36,3.36,0,0,1,89,115a11.94,11.94,0,0,0-2.11-1.41,2.14,2.14,0,0,1-1-.8,2.64,2.64,0,0,0-1-.72,12.18,12.18,0,0,0-1.22-.68c-.46-.18-.53-.64-.93-.81-.16-.07-.42,0-.59-.08a5.51,5.51,0,0,1-.65-.46c-.42-.26-.82-.18-1.25-.35s-.68-.43-1.11-.42-.87.19-1.34.2a2.28,2.28,0,0,0-.64,0c-.32.09-.27.23-.51.37-.45.25-.93-.29-1.21-.14-.12.07-.11.57-.12.7-.46,0-.33.54-.58.79s-.82.16-.87.77a6.56,6.56,0,0,0,.19,1.12C74.2,114.16,75.74,113.57,76.53,113.73Z" transform="translate(-39.21 -25.92)"/><path class="cls-4" d="M90.91,115.66a3.46,3.46,0,0,1-2-.59l-.36-.27a8.48,8.48,0,0,0-1.74-1.13,2.25,2.25,0,0,1-1-.82,1.76,1.76,0,0,0-.71-.55l-.29-.16c-.14-.07-.27-.15-.4-.23a5.77,5.77,0,0,0-.82-.44,1.27,1.27,0,0,1-.53-.46,1,1,0,0,0-.39-.35.66.66,0,0,0-.26,0,.8.8,0,0,1-.34,0,2,2,0,0,1-.4-.27,1.46,1.46,0,0,0-.25-.2,1.78,1.78,0,0,0-.68-.21,2.38,2.38,0,0,1-.56-.13l-.35-.17a1.42,1.42,0,0,0-.71-.25h0a3.69,3.69,0,0,0-.64.1,3.1,3.1,0,0,1-.69.1h-.12a2.67,2.67,0,0,0-.51,0,.44.44,0,0,0-.27.17.72.72,0,0,1-.22.19.58.58,0,0,1-.31.08,1.42,1.42,0,0,1-.51-.13c-.16-.07-.31-.13-.39-.08s-.06.1-.07.57v.12h-.08c-.22,0-.27.15-.34.38a.84.84,0,0,1-.19.39,1.2,1.2,0,0,1-.42.24c-.23.08-.4.15-.42.48a2.06,2.06,0,0,0,.1.67c0,.14.07.29.09.43,0,.39.31.55.9.55h0l.57,0a4,4,0,0,1,.92,0l.06,0,0,.13a1.26,1.26,0,0,1-.21,1.13.75.75,0,0,1-.58.28,2.09,2.09,0,0,1-.72-.21l0,0a5.11,5.11,0,0,0-.62-.22,2.39,2.39,0,0,1-1.56-1,3.26,3.26,0,0,1,0-2.51,4.14,4.14,0,0,0,.21-.65c.19-.63.4-1.35,1.1-1.43a1.12,1.12,0,0,1,.32,0,.66.66,0,0,0,.28,0,.53.53,0,0,0,.31-.15.83.83,0,0,1,.24-.16,3.24,3.24,0,0,1,.52-.15,1.67,1.67,0,0,0,.67-.25,1.42,1.42,0,0,1,1.24-.31,2.84,2.84,0,0,1,.54.17,1.79,1.79,0,0,0,.66.18h0l.25,0a2.3,2.3,0,0,1,.37,0,1.2,1.2,0,0,1,.39.12,1.16,1.16,0,0,0,.28.1,1,1,0,0,0,.3,0,1,1,0,0,1,.35,0,1.12,1.12,0,0,1,.32.12.92.92,0,0,0,.29.11l.23,0a1.57,1.57,0,0,1,1,.45,2.8,2.8,0,0,1,.35.41,1.91,1.91,0,0,0,.4.44.64.64,0,0,0,.37.09h.32a.75.75,0,0,1,.53.17,1.15,1.15,0,0,1,.28.42,1.12,1.12,0,0,0,.38.5,5.24,5.24,0,0,0,.53.27,5.34,5.34,0,0,1,.58.3c.12.09.25.16.37.24a5.5,5.5,0,0,1,.66.45,9.47,9.47,0,0,1,.72.67,3.58,3.58,0,0,0,1.26,1c.27.12.52.25.75.37a3.57,3.57,0,0,0,1.51.53,4,4,0,0,0,.49,0h.25l.35,0a2.29,2.29,0,0,0,.54,0,5.51,5.51,0,0,1,.71-.06,1.27,1.27,0,0,1,.43.06l.22.1-.23.06a6.45,6.45,0,0,1-2,.3l-.58,0a5,5,0,0,0-.79,0Zm-11.75-6.48a1.66,1.66,0,0,1,.8.27,2.39,2.39,0,0,0,.32.16,1.87,1.87,0,0,0,.52.12,2.08,2.08,0,0,1,.75.23,2.61,2.61,0,0,1,.27.22,1.26,1.26,0,0,0,.36.24.61.61,0,0,0,.28,0,.85.85,0,0,1,.32,0,1.19,1.19,0,0,1,.45.41,1.18,1.18,0,0,0,.47.41,5.6,5.6,0,0,1,.84.45l.39.23.28.15a1.92,1.92,0,0,1,.77.59,2,2,0,0,0,1,.77,8.65,8.65,0,0,1,1.77,1.15l.36.27a3.29,3.29,0,0,0,1.85.56l.33,0a7.13,7.13,0,0,1,.82,0l.57,0a6.29,6.29,0,0,0,1.52-.18,5.05,5.05,0,0,0-.67.06,2.65,2.65,0,0,1-.58,0l-.33,0h-.25a4.21,4.21,0,0,1-.5,0,3.62,3.62,0,0,1-1.58-.55c-.23-.12-.47-.25-.74-.36a3.91,3.91,0,0,1-1.32-1,7.28,7.28,0,0,0-.69-.66,5.21,5.21,0,0,0-.65-.43l-.38-.25a4.92,4.92,0,0,0-.56-.29,4,4,0,0,1-.54-.28,1.21,1.21,0,0,1-.44-.57,1,1,0,0,0-.24-.36.75.75,0,0,0-.58-.12h-.16a.74.74,0,0,1-.46-.12,1.88,1.88,0,0,1-.45-.48,2.52,2.52,0,0,0-.33-.39,1.41,1.41,0,0,0-.93-.4l-.23,0a1.51,1.51,0,0,1-.34-.13.88.88,0,0,0-.27-.1.72.72,0,0,0-.29,0,1.45,1.45,0,0,1-.36,0,1,1,0,0,1-.32-.11,1.37,1.37,0,0,0-.34-.1,1.25,1.25,0,0,0-.33,0,2.48,2.48,0,0,1-.27,0h0a1.9,1.9,0,0,1-.71-.19,2.16,2.16,0,0,0-.51-.16,1.25,1.25,0,0,0-1.12.28,1.71,1.71,0,0,1-.72.28,2.43,2.43,0,0,0-.49.14.77.77,0,0,0-.2.13.55.55,0,0,1-.4.18.92.92,0,0,1-.34,0,.77.77,0,0,0-.26,0c-.59.07-.78.7-1,1.31a4.35,4.35,0,0,1-.23.67,3.11,3.11,0,0,0,0,2.36,2.2,2.2,0,0,0,1.46.92c.21.07.43.14.64.23l0,0a1.79,1.79,0,0,0,.65.2.56.56,0,0,0,.45-.22c.26-.28.22-.58.17-1h0a4.57,4.57,0,0,0-.82,0l-.58,0h0c-.45,0-1-.08-1.07-.69a3.15,3.15,0,0,0-.09-.42,2.35,2.35,0,0,1-.1-.72.64.64,0,0,1,.53-.63,1,1,0,0,0,.36-.2.79.79,0,0,0,.15-.32c.06-.19.13-.43.41-.49,0-.38,0-.63.16-.69s.34,0,.53.07a.83.83,0,0,0,.68.07.66.66,0,0,0,.17-.16.62.62,0,0,1,.36-.23,3.12,3.12,0,0,1,.55-.05h.11a2.84,2.84,0,0,0,.66-.1,5.06,5.06,0,0,1,.68-.1Z" transform="translate(-39.21 -25.92)"/><path class="cls-5" d="M76.35,117c-.32-.34-1.42-.77-1.77-.32,0-.27-.3-.28-.55-.22,0-.38-.42-.75-.52-1.14-.14-.59.08-.77.26-1.2a2.56,2.56,0,0,1,.54-1.08c.28-.3.72-.35.84-.75.61,0,.83-.49,1.35-.66s.81.12,1.28-.12c.09.46.84.37,1.21.35,0,.12.07.29.05.41a1.38,1.38,0,0,0,1-.11c.12.48.89.3,1.26.3-.06.59.35.43.79.43.11.49.83.3,1.21.29.31.65,1.26.25,1.86.24s1.37,0,2.06.07l1,0a1.82,1.82,0,0,0,1-.17c.33-.11.77,0,1.07-.19s.29-.56.65-.54c0-.35.57-.52.82-.7a4.62,4.62,0,0,1,.84-.54,17.24,17.24,0,0,0,2.42-1c-1.08.24-2.75,1-3.87,1.18a5.91,5.91,0,0,0-1.54.4c-.42.2-1.29.14-1.57.51,0-.06,0-.13,0-.19a20.13,20.13,0,0,1-2.59-.15c-.88-.09-1.7.26-2.53.19a3.82,3.82,0,0,1-1.2-.2c-.18-.09-.26-.31-.51-.38s-.47,0-.71-.08c-.43-.1-.78-.48-1.23-.57a5.64,5.64,0,0,0-1.3-.06c-.93,0-1.41-.64-2.21.11a1.86,1.86,0,0,1-1.15.57,1,1,0,0,0-.87.79c-.46,0-.93.68-1.11,1a2.35,2.35,0,0,0-.21,1.6c.11.39.17.22.41.5a1.12,1.12,0,0,1,.22.75c0,.47.12,1.43.82,1.24-.17.67,1.52.5,1.95.52a2.86,2.86,0,0,0,1.13,0c.29-.14.76-.8.55-1.15C77.2,116.42,76.51,117.19,76.35,117Z" transform="translate(-39.21 -25.92)"/><path class="cls-4" d="M76.49,118.27l-.43,0-.25,0h-.65c-.74,0-1.15-.09-1.31-.3a.39.39,0,0,1-.08-.21h-.08c-.64,0-.7-1-.73-1.34v-.07a.9.9,0,0,0-.19-.63.66.66,0,0,0-.2-.17c-.1-.06-.16-.11-.23-.37a2.39,2.39,0,0,1,.22-1.66c0-.1.55-1,1.12-1a1.11,1.11,0,0,1,.91-.8l.18,0a1.54,1.54,0,0,0,.93-.5,1.22,1.22,0,0,1,.85-.38,2.11,2.11,0,0,1,.6.11,2.71,2.71,0,0,0,.79.14h.53a4.44,4.44,0,0,1,.82.06,2.5,2.5,0,0,1,.66.31,1.74,1.74,0,0,0,.57.27,1.55,1.55,0,0,0,.31,0,1.36,1.36,0,0,1,.4,0,.92.92,0,0,1,.36.25,1.14,1.14,0,0,0,.17.15,2.94,2.94,0,0,0,1,.17l.17,0a4.79,4.79,0,0,0,1.18-.1,5.8,5.8,0,0,1,1-.11h.32a20.5,20.5,0,0,0,2.58.15h.08v.11a2.23,2.23,0,0,1,.87-.27,2.82,2.82,0,0,0,.62-.15,5.52,5.52,0,0,1,1.45-.38l.11,0a14.24,14.24,0,0,0,2.11-.63,16.17,16.17,0,0,1,1.76-.55l.37-.08-.31.23a6.2,6.2,0,0,1-1.53.65,7,7,0,0,0-.9.34,4.19,4.19,0,0,0-.82.52l-.28.17c-.23.12-.49.27-.51.48v.08H91c-.16,0-.22.08-.31.23a.86.86,0,0,1-.3.3,1.62,1.62,0,0,1-.63.14,2,2,0,0,0-.45.06l-.14.05a1.7,1.7,0,0,1-.91.12l-.77,0h-.25l-.74,0c-.44,0-.89,0-1.32,0a3.34,3.34,0,0,0-.51.06,4.64,4.64,0,0,1-.64.07.79.79,0,0,1-.76-.37h-.19a2.34,2.34,0,0,1-.38,0c-.13,0-.53,0-.65-.34l-.16,0h-.22a.45.45,0,0,1-.34-.12.49.49,0,0,1-.1-.34l-.14,0-.39,0c-.14,0-.54,0-.69-.3a1.35,1.35,0,0,1-.59.12,1.52,1.52,0,0,1-.38,0l-.08,0v-.07a.62.62,0,0,0,0-.18.51.51,0,0,1,0-.13h0l-.34,0c-.17,0-.67,0-.81-.34a1.42,1.42,0,0,1-.65,0,1.75,1.75,0,0,0-.56,0,1.91,1.91,0,0,0-.52.3,1.35,1.35,0,0,1-.79.36,1,1,0,0,1-.48.47,1.32,1.32,0,0,0-.36.26,2,2,0,0,0-.42.75c0,.09-.06.19-.1.3l-.13.28a1,1,0,0,0-.12.87,1.45,1.45,0,0,0,.24.46,1.56,1.56,0,0,1,.28.6.44.44,0,0,1,.5.17.71.71,0,0,1,.45-.13,2.21,2.21,0,0,1,1.34.54.88.88,0,0,0,.26-.1,1.16,1.16,0,0,1,.52-.18.41.41,0,0,1,.38.23.58.58,0,0,1,0,.49,1.5,1.5,0,0,1-.61.79A1.3,1.3,0,0,1,76.49,118.27Zm-.74-.21h.07l.25,0,.42,0a.91.91,0,0,0,.42-.07,1.27,1.27,0,0,0,.53-.68.47.47,0,0,0,0-.35.26.26,0,0,0-.24-.15,1.11,1.11,0,0,0-.45.16.89.89,0,0,1-.33.12.22.22,0,0,1-.13,0,2,2,0,0,0-1.21-.49.51.51,0,0,0-.42.16l-.13.16,0-.2c0-.08,0-.17-.23-.17a.71.71,0,0,0-.2,0l-.12,0v-.12a1,1,0,0,0-.25-.59,2,2,0,0,1-.27-.52,1.24,1.24,0,0,1,.14-1c0-.08.08-.16.12-.26l.1-.29a2.05,2.05,0,0,1,.46-.81,1.77,1.77,0,0,1,.39-.3c.2-.11.37-.21.43-.42v-.06h.07a1.29,1.29,0,0,0,.75-.33,2,2,0,0,1,.57-.33,1.67,1.67,0,0,1,.63,0l.23,0a.91.91,0,0,0,.41-.09l.1,0,0,.11c0,.2.26.3.68.3l.33,0h.22l0,.1a.67.67,0,0,0,0,.18.77.77,0,0,1,0,.15,1.32,1.32,0,0,0,.87-.11l.1-.06,0,.11c0,.19.22.27.56.27l.37,0,.25,0h.1v.09a.46.46,0,0,0,0,.31.3.3,0,0,0,.22.06h.21l.23,0h.06l0,.07c0,.19.2.27.51.27l.37,0,.24,0h.06l0,0a.62.62,0,0,0,.64.33,4.39,4.39,0,0,0,.61-.07,3.57,3.57,0,0,1,.54-.06c.43,0,.89,0,1.33,0l.73,0h.26l.77,0a1.7,1.7,0,0,0,.84-.12l.14,0a2.08,2.08,0,0,1,.5-.07,1.36,1.36,0,0,0,.56-.12.64.64,0,0,0,.24-.25.5.5,0,0,1,.38-.29c.07-.26.36-.41.59-.54l.25-.15a4.75,4.75,0,0,1,.85-.55l.15-.06a10.51,10.51,0,0,1-1.55.43l-.1,0a4.87,4.87,0,0,0-1.41.37,2.78,2.78,0,0,1-.66.16c-.36.06-.74.12-.88.32l-.13.16,0-.2s0-.07,0-.1v0a19.68,19.68,0,0,1-2.53-.15h-.3a5.47,5.47,0,0,0-1,.11,5.07,5.07,0,0,1-1.23.09h-.17a3.18,3.18,0,0,1-1.06-.19.94.94,0,0,1-.21-.18.61.61,0,0,0-.29-.2,1,1,0,0,0-.35,0l-.35,0a2.91,2.91,0,0,1-.62-.29,2,2,0,0,0-.61-.29,3.9,3.9,0,0,0-.78-.06h-.53a2.86,2.86,0,0,1-.83-.15,2.37,2.37,0,0,0-.56-.1,1,1,0,0,0-.73.33,1.68,1.68,0,0,1-1,.55l-.17,0c-.42.11-.72.27-.81.73l0,.07h-.07c-.4,0-.85.62-1,1a2.18,2.18,0,0,0-.21,1.53c.06.2.09.22.16.26a1.44,1.44,0,0,1,.24.2,1.13,1.13,0,0,1,.23.74v.07c0,.5.13,1.18.56,1.18l.16,0,.14,0,0,.14a.19.19,0,0,0,0,.18c.13.16.52.24,1.18.24h.59Z" transform="translate(-39.21 -25.92)"/><path class="cls-5" d="M82.43,106.93a6.31,6.31,0,0,0,1.17.36,6.87,6.87,0,0,1,1.1.4c.35.14.84.12,1.22.23s.79.23,1.19.32a14.57,14.57,0,0,0,2.5.66,6.39,6.39,0,0,0,1.85-.18,7.69,7.69,0,0,0,.81-.27,1.28,1.28,0,0,1,.85-.15c.6,0,1.25-.1,1.83-.08s1.72-.13,2.27.29a13.72,13.72,0,0,1-3,.2,14,14,0,0,0-2.5.55,9.76,9.76,0,0,1-2.57.39c-.17,0-.41-.14-.55-.12s-.35.21-.58.26a2.76,2.76,0,0,1-.65-.07c-.19,0-.47.09-.64.08s-.59-.28-.94-.29-.6.09-.93-.15-.42-.55-.68-.67-.34,0-.5,0-.27-.17-.46-.24a9.2,9.2,0,0,0-1.07-.21c-.1,0-.31-.19-.41-.23s-.31-.09-.48-.14c-.4-.13-1.85-.23-1.79-.83.51-.06,1,0,1.53-.1A2.93,2.93,0,0,1,82.43,106.93Z" transform="translate(-39.21 -25.92)"/><path class="cls-4" d="M86.73,109.89h0a1.39,1.39,0,0,1-.45-.14,1.41,1.41,0,0,0-.48-.15h-.27a.92.92,0,0,1-.71-.17,1.88,1.88,0,0,1-.31-.32,1.19,1.19,0,0,0-.36-.35.54.54,0,0,0-.22,0,.58.58,0,0,1-.26,0,.7.7,0,0,1-.3-.15l-.17-.09a2.4,2.4,0,0,0-.59-.13,4.8,4.8,0,0,1-.48-.08,1.53,1.53,0,0,1-.25-.13l-.16-.1a1.38,1.38,0,0,0-.27-.08l-.21-.06a3,3,0,0,0-.38-.08c-.6-.12-1.52-.29-1.47-.84V107h.07a5.74,5.74,0,0,1,.71,0,7.92,7.92,0,0,0,.82-.06l.17,0a4.53,4.53,0,0,1,.74-.08,1.64,1.64,0,0,1,.6.1,5.69,5.69,0,0,0,1.15.36,3.75,3.75,0,0,1,.78.26l.34.14a3,3,0,0,0,.64.13,3.39,3.39,0,0,1,.57.1l.23.06c.31.09.64.19,1,.25a7.54,7.54,0,0,1,1,.3,5.6,5.6,0,0,0,1.53.37,6.77,6.77,0,0,0,1.83-.18,6.11,6.11,0,0,0,.79-.27,1.39,1.39,0,0,1,.81-.16h.08a7.08,7.08,0,0,0,.92,0c.31,0,.62,0,.91,0h.9a2.46,2.46,0,0,1,1.42.31l.12.09-.14.06a6.62,6.62,0,0,1-2.1.19h-.36l-.61,0a11.09,11.09,0,0,0-2,.41l-.51.14a10.38,10.38,0,0,1-2.49.4h-.1a1.09,1.09,0,0,1-.3-.07.73.73,0,0,0-.22-.06.55.55,0,0,0-.28.12.89.89,0,0,1-.31.14,1.06,1.06,0,0,1-.44,0l-.23,0h0a1.55,1.55,0,0,0-.29,0A1.88,1.88,0,0,1,86.73,109.89Zm-1-.47h.06a1.67,1.67,0,0,1,.55.16,1,1,0,0,0,.39.13,1.27,1.27,0,0,0,.32,0,1.88,1.88,0,0,1,.31,0,1.1,1.1,0,0,1,.27,0,1,1,0,0,0,.38,0,.8.8,0,0,0,.25-.11.78.78,0,0,1,.33-.15.84.84,0,0,1,.32.07.77.77,0,0,0,.24.06h.1a10,10,0,0,0,2.44-.39l.51-.14a10.52,10.52,0,0,1,2-.42l.62,0h.74a6.55,6.55,0,0,0,1.49-.12,2.7,2.7,0,0,0-1.17-.19H95a8.82,8.82,0,0,0-.89,0,7.39,7.39,0,0,1-.94,0H93a1.18,1.18,0,0,0-.74.15,6.56,6.56,0,0,1-.82.27,6.71,6.71,0,0,1-1.87.19,6,6,0,0,1-1.59-.38,6.17,6.17,0,0,0-.93-.29c-.32-.07-.65-.16-1-.26L85.9,108a3.16,3.16,0,0,0-.55-.09,3,3,0,0,1-.68-.14l-.35-.14a3.78,3.78,0,0,0-.74-.25A6.49,6.49,0,0,1,82.4,107a1.53,1.53,0,0,0-.54-.09,4.41,4.41,0,0,0-.71.08L81,107a8.1,8.1,0,0,1-.84.06,4.36,4.36,0,0,0-.62,0c.07.34.85.49,1.33.58l.4.09.2,0,.29.09a1.3,1.3,0,0,1,.19.11,1.28,1.28,0,0,0,.21.12,3.5,3.5,0,0,0,.45.07,2.38,2.38,0,0,1,.63.14.83.83,0,0,1,.21.12.67.67,0,0,0,.24.11.31.31,0,0,0,.19,0,.61.61,0,0,1,.33,0,1.38,1.38,0,0,1,.41.39,1.55,1.55,0,0,0,.28.29.76.76,0,0,0,.6.14Z" transform="translate(-39.21 -25.92)"/><path class="cls-5" d="M103.93,106.66c.17.62.24,1.26.44,1.88-.39.22-.22,1-.39,1.37a5.76,5.76,0,0,1-.33.72,2.51,2.51,0,0,0-.28.57c-.12.31-.31.37-.48.64a2.3,2.3,0,0,0-.17.65,6.27,6.27,0,0,0-.5,1.73,21.75,21.75,0,0,1,1.47-2.54c.25-.33.4-.76.67-1.09a2.92,2.92,0,0,0,.67-1,16.93,16.93,0,0,0,.27-2.5,2.53,2.53,0,0,0-.53-1.91.57.57,0,0,0-.91.14C103.57,105.71,103.82,106.23,103.93,106.66Z" transform="translate(-39.21 -25.92)"/><path class="cls-4" d="M102.05,114.71l.08-.5a5.23,5.23,0,0,1,.38-1.41,2.68,2.68,0,0,0,.13-.34,1.37,1.37,0,0,0,0-.23,1.09,1.09,0,0,1,.14-.43,1.15,1.15,0,0,1,.23-.28.94.94,0,0,0,.24-.35l0,0a2.74,2.74,0,0,1,.26-.55,4.73,4.73,0,0,0,.31-.64l0-.06a2.27,2.27,0,0,0,.08-.51,1.17,1.17,0,0,1,.28-.87c-.1-.33-.17-.67-.24-1s-.11-.55-.18-.82l-.06-.22a1.32,1.32,0,0,1,0-1.21.68.68,0,0,1,1-.16,2.62,2.62,0,0,1,.55,2c0,.29,0,.61-.07.92a7.44,7.44,0,0,1-.2,1.59,2.11,2.11,0,0,1-.52.85l-.17.2a5.28,5.28,0,0,0-.35.56,3.5,3.5,0,0,1-.31.53,19.38,19.38,0,0,0-1.34,2.29Zm2.31-9.63a.52.52,0,0,0-.43.27,1.17,1.17,0,0,0,0,1.06,1.55,1.55,0,0,0,.07.23c.07.27.13.55.18.82a9.43,9.43,0,0,0,.25,1.05l0,.06-.06,0c-.2.12-.23.45-.25.77a1.81,1.81,0,0,1-.1.56l0,.06a4.56,4.56,0,0,1-.32.67,1.91,1.91,0,0,0-.25.52l0,0a1.13,1.13,0,0,1-.28.41,1.38,1.38,0,0,0-.21.25,1,1,0,0,0-.11.37,2.21,2.21,0,0,1,0,.25c0,.14-.09.25-.13.36a4,4,0,0,0-.27.82,17.28,17.28,0,0,1,1.22-2.06c.11-.16.21-.33.31-.51a4.05,4.05,0,0,1,.36-.59l.17-.2a2,2,0,0,0,.49-.79,7,7,0,0,0,.19-1.55c0-.31,0-.63.08-.94a2.5,2.5,0,0,0-.5-1.82A.56.56,0,0,0,104.36,105.08Z" transform="translate(-39.21 -25.92)"/><path class="cls-2" d="M106.38,125.68s.05,2.76,0,3.68-.26,2.5-.42,3.32c-.08.45-.45,1.76-.45,1.76s-.07-3,0-3.94C105.64,129.28,106.38,125.68,106.38,125.68Z" transform="translate(-39.21 -25.92)"/><path class="cls-4" d="M59.83,125.9l-16.15-1.2-.45,6-2.16-.16,1.08-14.52,2.16.16-.45,6.06L60,123.48Z" transform="translate(-39.21 -25.92)"/><path class="cls-4" d="M60.19,118.45,44.06,107.2l.62-2.55,19.64-2.88-.67,2.69-5.91.74-1.85,7.45,4.92,3.3Zm-6-7,1.5-6-5.4.63c-1.64.2-3,.32-4,.35a22.84,22.84,0,0,1,3.17,1.81Z" transform="translate(-39.21 -25.92)"/><path class="cls-4" d="M64.87,100.76,48.18,93.09l2.89-6.29a17.47,17.47,0,0,1,1.33-2.47,5.58,5.58,0,0,1,1.73-1.7,4.45,4.45,0,0,1,2.22-.6,5.63,5.63,0,0,1,2.51.54,5.69,5.69,0,0,1,3,3c.57,1.36.31,3.21-.77,5.57l-2,4.28,6.78,3.12Zm-7.74-6.23,2-4.31a5,5,0,0,0,.6-3.41,3.1,3.1,0,0,0-1.83-1.93,3.27,3.27,0,0,0-2-.29,2.74,2.74,0,0,0-1.63.94,10.53,10.53,0,0,0-1.09,2l-2,4.27Z" transform="translate(-39.21 -25.92)"/><path class="cls-4" d="M55.59,77.54l1.4-2,12.66,1.53L63.42,66.32l1.38-2,7.77,13.82a14.1,14.1,0,0,1,1.66,3.74,3.23,3.23,0,0,1-.67,2.42A7.72,7.72,0,0,1,71.88,86l-1.71-1.18a4.11,4.11,0,0,0,1.65-1.38,2.2,2.2,0,0,0,.41-1.58,7.37,7.37,0,0,0-1.32-2.66Z" transform="translate(-39.21 -25.92)"/><path class="cls-4" d="M84.16,70.65,72.7,59.21l-4.28,4.28L66.89,62l10.28-10.3,1.54,1.53-4.3,4.3L85.88,68.93Z" transform="translate(-39.21 -25.92)"/><path class="cls-4" d="M81.16,48.36,83,47.12l8.21,12L91,41.6l2-1.38,10.37,15.16-1.82,1.24-8.19-12,.11,17.5-2,1.37Z" transform="translate(-39.21 -25.92)"/><path class="cls-4" d="M106.23,53.85,99.11,36.92l2.24-.94,2.92,7,8.8-3.7-2.92-6.95,2.24-1,7.12,16.93-2.24.94-3.36-8-8.8,3.71,3.36,8Z" transform="translate(-39.21 -25.92)"/><path class="cls-4" d="M134.19,38.46l2.51.14a8.22,8.22,0,0,1-1.82,5,7.6,7.6,0,0,1-4.46,2.48,8.66,8.66,0,0,1-5-.26A7.54,7.54,0,0,1,122,42.94a12.64,12.64,0,0,1-1.9-4.64,10.83,10.83,0,0,1,.11-5.12,7.46,7.46,0,0,1,2.44-3.78,9,9,0,0,1,4.15-1.95,7.47,7.47,0,0,1,4.82.48,7.3,7.3,0,0,1,3.33,3.37l-2.24,1a5.62,5.62,0,0,0-2.38-2.5,4.87,4.87,0,0,0-3.18-.31,5.9,5.9,0,0,0-3.27,1.68,5.34,5.34,0,0,0-1.44,3,11,11,0,0,0,.12,3.58A11.25,11.25,0,0,0,124,41.69a5.08,5.08,0,0,0,2.59,2.15,6,6,0,0,0,3.22.25A5.25,5.25,0,0,0,133,42.26,6,6,0,0,0,134.19,38.46Z" transform="translate(-39.21 -25.92)"/><path class="cls-4" d="M140.08,25.92h2.43v7.84h4.39a10.17,10.17,0,0,1,4.45.72,4.31,4.31,0,0,1,2,1.94,5.7,5.7,0,0,1,.6,2.53,5.37,5.37,0,0,1-1.45,3.73c-1,1.07-2.77,1.61-5.41,1.6h-7Zm2.42,16.3H147c1.8,0,3-.32,3.53-1A3.47,3.47,0,0,0,151.3,39a2.93,2.93,0,0,0-.6-1.87,2.64,2.64,0,0,0-1.58-1,17.11,17.11,0,0,0-3.36-.23H142.5Z" transform="translate(-39.21 -25.92)"/><path class="cls-4" d="M159.26,26.57l2.39.42-1.38,7.92a3.41,3.41,0,0,0,2.42-.23,11,11,0,0,0,2.24-2.76,15.25,15.25,0,0,1,1.68-2.29,3.87,3.87,0,0,1,1.6-1,4.13,4.13,0,0,1,2.07-.15c.92.16,1.41.26,1.45.28l-.36,2.07-.48-.09-.48-.1a2.36,2.36,0,0,0-1.8.26A7.77,7.77,0,0,0,166.9,33a9.35,9.35,0,0,1-2,2.63,5.08,5.08,0,0,1-1.67.69q1.67.78,2.88,3.84l2.68,6.67-3-.52-2.17-5.44a13.56,13.56,0,0,0-1.6-3.16,3.19,3.19,0,0,0-2-1.14l-1.47,8.47-2.4-.42Z" transform="translate(-39.21 -25.92)"/><path class="cls-4" d="M176.45,30l2.06.76-5.06,13.64,14.22-10.23L190,35l-6.4,17.22-2.06-.77,5.05-13.6-14.22,10.2-2.28-.85Z" transform="translate(-39.21 -25.92)"/><path class="cls-4" d="M196.14,38.07,198,39.24,190.3,51.57l16-7.15,2.07,1.3-9.74,15.57-1.87-1.17,7.69-12.3-16,7.11-2.07-1.28Zm10.06,1.14,1.31.81a3.67,3.67,0,0,1-2.25,1.44,3.78,3.78,0,0,1-2.61-.64,3.82,3.82,0,0,1-1.73-2.07,3.66,3.66,0,0,1,.31-2.65l1.31.82a2.08,2.08,0,0,0-.09,1.44,2.21,2.21,0,0,0,1,1.1,2.51,2.51,0,0,0,1.52.47A2.11,2.11,0,0,0,206.2,39.21Z" transform="translate(-39.21 -25.92)"/><path class="cls-4" d="M224.1,79l1,2.31a8.24,8.24,0,0,1-5.29.59,7.53,7.53,0,0,1-4.2-2.9,8.82,8.82,0,0,1-2-4.57,7.61,7.61,0,0,1,1.06-4.38A12.6,12.6,0,0,1,218,66.33a10.82,10.82,0,0,1,4.64-2.17,7.48,7.48,0,0,1,4.47.5,9.13,9.13,0,0,1,3.59,2.87,7.43,7.43,0,0,1,1.7,4.53,7.29,7.29,0,0,1-1.54,4.48L229,75a5.67,5.67,0,0,0,1.19-3.25,4.91,4.91,0,0,0-1.13-3,5.91,5.91,0,0,0-3-2.19,5.36,5.36,0,0,0-3.38.07,10.87,10.87,0,0,0-3.15,1.68,11.23,11.23,0,0,0-2.83,3,5,5,0,0,0-.78,3.27,5.91,5.91,0,0,0,1.21,3,5.25,5.25,0,0,0,3,2A6,6,0,0,0,224.1,79Z" transform="translate(-39.21 -25.92)"/><path class="cls-4" d="M223.18,90.35l14.39-7.43-2.77-5.37,1.93-1,6.67,12.94-1.93,1-2.78-5.4-14.4,7.43Z" transform="translate(-39.21 -25.92)"/><path class="cls-4" d="M227.68,99.57l17.56-5.36,3.88,12.7-2.08.63-3.16-10.37-5.38,1.64,3,9.71-2.06.63-3-9.71-6,1.82L233.75,112l-2.07.64Z" transform="translate(-39.21 -25.92)"/><path class="cls-4" d="M250.46,113.37l1.44,14.38-18.28,1.82-.24-2.43,16.12-1.61-.95-9.52-16.12,1.61-.24-2.42Z" transform="translate(-39.21 -25.92)"/><path class="cls-6" d="M216.23,146.49" transform="translate(-39.21 -25.92)"/><path class="cls-7" d="M60.94,146.49c0-54.82,38.36-99.26,85.67-99.26s85.66,44.44,85.66,99.26" transform="translate(-39.21 -25.92)"/><line class="cls-7" y1="120.1" x2="216.31" y2="120.3"/></svg>
